<svg width="20" height="20" viewBox="0 0 20 20" fill="none" xmlns="http://www.w3.org/2000/svg">
<path d="M10 1C8.21997 1 6.47991 1.52784 4.99987 2.51677C3.51983 3.50571 2.36628 4.91131 1.68509 6.55585C1.0039 8.20038 0.82567 10.01 1.17294 11.7558C1.5202 13.5016 2.37737 15.1053 3.63604 16.364C4.89471 17.6226 6.49836 18.4798 8.24419 18.8271C9.99002 19.1743 11.7996 18.9961 13.4442 18.3149C15.0887 17.6337 16.4943 16.4802 17.4832 15.0001C18.4722 13.5201 19 11.78 19 10C18.9973 7.61389 18.0482 5.32629 16.3609 3.63906C14.6737 1.95182 12.3861 1.00273 10 1ZM18.4684 10C18.4677 10.3251 18.4485 10.65 18.4108 10.9729C16.4024 8.98577 14.3139 7.54714 12.1655 6.67342C12.2046 6.4709 12.2627 6.27255 12.3392 6.08101C12.7873 4.92506 13.8051 3.91144 15.1427 3.27894C16.1765 4.06811 17.0143 5.08507 17.5911 6.25075C18.1679 7.41643 18.4681 8.69942 18.4684 10ZM14.6524 2.92911C13.3222 3.62542 12.3102 4.68354 11.8465 5.8799C11.768 6.07471 11.707 6.27611 11.6642 6.48172C10.6817 6.12089 9.66047 5.87569 8.62122 5.75109C9.13592 4.26515 9.85283 2.85719 10.7517 1.56689C12.145 1.6896 13.4856 2.1578 14.6524 2.92911ZM10.1328 1.53499C9.26847 2.82706 8.57745 4.22696 8.07742 5.69883C8.03914 5.69595 8.00071 5.69215 7.96228 5.68957C7.15186 5.63512 6.33804 5.66081 5.53266 5.76628C5.71968 4.82483 5.64561 3.85017 5.31848 2.9478C6.70446 2.02285 8.33374 1.53 10 1.53165C10.0445 1.53165 10.0884 1.53438 10.1328 1.53499ZM4.87327 3.26663C5.14366 4.10304 5.17918 4.99764 4.97595 5.85286C4.01686 6.02098 3.08287 6.3097 2.19621 6.71215C2.77407 5.35036 3.69672 4.16336 4.87327 3.26663ZM1.92841 7.43914C2.83593 6.95944 3.80947 6.61673 4.81737 6.42218C4.81281 6.43585 4.80947 6.44906 4.80476 6.46273C4.63476 6.91048 4.43476 7.34625 4.20613 7.76709C3.4755 9.20253 2.50486 11.1178 2.60937 14.1271C2.04426 13.1182 1.69224 12.0041 1.57511 10.8538C1.45798 9.70336 1.57823 8.54118 1.92841 7.43914ZM3.20603 15.0493C2.84345 11.6214 3.90324 9.53413 4.67945 8.0083C4.91992 7.56527 5.12973 7.10627 5.30739 6.63453C5.34355 6.5282 5.37545 6.4237 5.40476 6.3198C6.23272 6.19776 7.07129 6.16395 7.90638 6.21894C6.88076 9.49858 6.5879 13.3749 7.00881 17.9214C5.49357 17.3457 4.17424 16.3492 3.20603 15.0493ZM7.55975 18.1084C7.1077 13.4785 7.39843 9.55949 8.44912 6.26709C9.51777 6.38585 10.5675 6.63709 11.5741 7.01504C11.4626 7.93884 11.528 8.87544 11.767 9.77473C11.9091 10.2572 12.0861 10.7288 12.2964 11.1857C12.9162 12.6332 13.6842 14.4301 13.4284 17.7406C11.5794 18.5624 9.49683 18.6929 7.55975 18.1084ZM13.9797 17.4725C14.1733 14.2219 13.376 12.3553 12.7857 10.9764C12.5861 10.5434 12.4176 10.0967 12.2817 9.63969C12.0708 8.85032 12.0034 8.0295 12.0827 7.2163C14.2228 8.10825 16.3055 9.58137 18.3105 11.6236C18.0671 12.8585 17.5522 14.0238 16.8032 15.0354C16.0543 16.0469 15.0898 16.8793 13.9797 17.4725Z" fill="#E57E25" stroke="#E57E25"/>
</svg>
