<svg width="20" height="20" viewBox="0 0 20 20" fill="none" xmlns="http://www.w3.org/2000/svg">
<path d="M10 1C5.02949 1 1 5.02949 1 10C1 14.9705 5.02949 19 10 19C14.9705 19 19 14.9705 19 10C18.9944 5.03184 14.9682 1.00557 10 1ZM16.9699 5.31704L16.3461 7.96841L13.0601 9.06367L10.3 6.85601V3.60303L13.45 2.34312C14.8762 2.98926 16.0946 4.01875 16.9699 5.31704ZM17.02 14.6036L14.0449 15.0733L12.4249 12.9333L13.2502 9.63335L16.4998 8.55039L18.3613 10.7841C18.2345 12.148 17.7738 13.4598 17.02 14.6036ZM5.96831 15.0754L2.98003 14.6036C2.22622 13.4595 1.76567 12.1475 1.63896 10.7833L3.49902 8.54951L6.74863 9.63247L7.57393 12.9342L5.96831 15.0754ZM1.60264 9.88809C1.6186 8.54981 1.95625 7.23481 2.58701 6.05444L3.07363 8.12441L1.60264 9.88809ZM8.13423 12.7L7.33838 9.51338L10 7.38423L12.6622 9.51426L11.8658 12.7H8.13423ZM16.9264 8.12324L17.413 6.05327C18.0438 7.23364 18.3814 8.54849 18.3974 9.88691L16.9264 8.12324ZM12.6319 2.02451L10 3.07715L7.35405 2.02935C9.06675 1.4585 10.9182 1.45688 12.6319 2.02451ZM6.53564 2.35L9.7 3.60405V6.85601L6.93994 9.06367L3.65386 7.96841L3.03013 5.31704C3.90244 4.02344 5.11563 2.99658 6.53564 2.35ZM3.4813 15.2901L5.91997 15.6754L7.39478 17.9855C5.85874 17.481 4.50024 16.5454 3.4813 15.2901ZM8.25493 18.2165L6.46475 15.4138L8.05 13.3H11.95L13.558 15.424L11.998 18.1579C10.7709 18.4601 9.49141 18.4806 8.25522 18.2179L8.25493 18.2165ZM12.8314 17.9077L14.1101 15.67L16.5199 15.2898C15.5518 16.4821 14.2763 17.3872 12.8314 17.9077Z" fill="#009A06" stroke="#009A06"/>
</svg>
