<svg width="20" height="20" viewBox="0 0 20 20" fill="none" xmlns="http://www.w3.org/2000/svg">
<path d="M7.40418 1H2.30999C1.58752 1 1 1.58761 1 2.30979V7.40442C1 8.1267 1.58762 8.71422 2.30999 8.71422H7.40418C8.12664 8.71422 8.71416 8.12661 8.71416 7.40424V2.3097C8.71416 1.58761 8.12664 1 7.40418 1ZM7.40418 8.07133H2.3098C1.94188 8.07133 1.64271 7.77225 1.64271 7.40433V2.30979C1.64271 1.94188 1.94198 1.6428 2.3098 1.6428H7.40399C7.77191 1.6428 8.07108 1.94188 8.07108 2.30979V7.40433C8.07108 7.77225 7.772 8.07133 7.40418 8.07133Z" fill="#0E3770"/>
<path d="M17.69 1H12.5958C11.8734 1 11.2858 1.58761 11.2858 2.30979V7.40442C11.2858 8.1267 11.8735 8.71422 12.5958 8.71422H17.69C18.4124 8.71422 19 8.12661 19 7.40424V2.3097C19 1.58761 18.4124 1 17.69 1ZM18.3569 7.40433C18.3569 7.77225 18.0576 8.07133 17.6898 8.07133H12.5956C12.2277 8.07133 11.9285 7.77225 11.9285 7.40433V2.30979C11.9285 1.94188 12.2278 1.6428 12.5956 1.6428H17.6898C18.0577 1.6428 18.3569 1.94188 18.3569 2.30979V7.40433Z" fill="#0E3770"/>
<path d="M7.40418 11.2858H2.30999C1.58771 11.2858 1 11.8734 1 12.5956V17.6902C1 18.4125 1.58762 19 2.30999 19H7.40418C8.12664 19 8.71416 18.4124 8.71416 17.69V12.5955C8.71416 11.8733 8.12664 11.2858 7.40418 11.2858ZM7.40418 18.3571H2.3098C1.94188 18.3571 1.64271 18.058 1.64271 17.6901V12.5956C1.64271 12.2277 1.94198 11.9286 2.3098 11.9286H7.40399C7.77191 11.9286 8.07108 12.2277 8.07108 12.5956V17.6901C8.07108 18.058 7.772 18.3571 7.40418 18.3571Z" fill="#0E3770"/>
<path d="M17.69 11.2858H12.5958C11.8734 11.2858 11.2858 11.8734 11.2858 12.5956V17.6902C11.2858 18.4125 11.8735 19 12.5958 19H17.69C18.4124 19 19 18.4124 19 17.69V12.5955C19 11.8733 18.4124 11.2858 17.69 11.2858ZM18.3569 17.6901C18.3569 18.058 18.0576 18.3571 17.6898 18.3571H12.5956C12.2277 18.3571 11.9285 18.058 11.9285 17.6901V12.5956C11.9285 12.2277 12.2278 11.9286 12.5956 11.9286H17.6898C18.0577 11.9286 18.3569 12.2277 18.3569 12.5956V17.6901Z" fill="#0E3770"/>
<path d="M7.40418 1H2.30999C1.58752 1 1 1.58761 1 2.30979V7.40442C1 8.1267 1.58762 8.71422 2.30999 8.71422H7.40418C8.12664 8.71422 8.71416 8.12661 8.71416 7.40424V2.3097C8.71416 1.58761 8.12664 1 7.40418 1ZM7.40418 8.07133H2.3098C1.94188 8.07133 1.64271 7.77225 1.64271 7.40433V2.30979C1.64271 1.94188 1.94198 1.6428 2.3098 1.6428H7.40399C7.77191 1.6428 8.07108 1.94188 8.07108 2.30979V7.40433C8.07108 7.77225 7.772 8.07133 7.40418 8.07133Z" stroke="#0E3770"/>
<path d="M17.69 1H12.5958C11.8734 1 11.2858 1.58761 11.2858 2.30979V7.40442C11.2858 8.1267 11.8735 8.71422 12.5958 8.71422H17.69C18.4124 8.71422 19 8.12661 19 7.40424V2.3097C19 1.58761 18.4124 1 17.69 1ZM18.3569 7.40433C18.3569 7.77225 18.0576 8.07133 17.6898 8.07133H12.5956C12.2277 8.07133 11.9285 7.77225 11.9285 7.40433V2.30979C11.9285 1.94188 12.2278 1.6428 12.5956 1.6428H17.6898C18.0577 1.6428 18.3569 1.94188 18.3569 2.30979V7.40433Z" stroke="#0E3770"/>
<path d="M7.40418 11.2858H2.30999C1.58771 11.2858 1 11.8734 1 12.5956V17.6902C1 18.4125 1.58762 19 2.30999 19H7.40418C8.12664 19 8.71416 18.4124 8.71416 17.69V12.5955C8.71416 11.8733 8.12664 11.2858 7.40418 11.2858ZM7.40418 18.3571H2.3098C1.94188 18.3571 1.64271 18.058 1.64271 17.6901V12.5956C1.64271 12.2277 1.94198 11.9286 2.3098 11.9286H7.40399C7.77191 11.9286 8.07108 12.2277 8.07108 12.5956V17.6901C8.07108 18.058 7.772 18.3571 7.40418 18.3571Z" stroke="#0E3770"/>
<path d="M17.69 11.2858H12.5958C11.8734 11.2858 11.2858 11.8734 11.2858 12.5956V17.6902C11.2858 18.4125 11.8735 19 12.5958 19H17.69C18.4124 19 19 18.4124 19 17.69V12.5955C19 11.8733 18.4124 11.2858 17.69 11.2858ZM18.3569 17.6901C18.3569 18.058 18.0576 18.3571 17.6898 18.3571H12.5956C12.2277 18.3571 11.9285 18.058 11.9285 17.6901V12.5956C11.9285 12.2277 12.2278 11.9286 12.5956 11.9286H17.6898C18.0577 11.9286 18.3569 12.2277 18.3569 12.5956V17.6901Z" stroke="#0E3770"/>
</svg>
