<svg width="12" height="6" viewBox="0 0 12 6" fill="none" xmlns="http://www.w3.org/2000/svg">
<path d="M5.85604 1.04615L1.06444 4.71287C1.003 4.76007 0.983059 4.83234 1.01521 4.8955C1.04675 4.95866 1.12345 5 1.20849 5L2.04181 5C2.09511 5 2.14638 4.98372 2.18503 4.95442L6.00006 2.06277L9.81512 4.95441C9.85377 4.9837 9.90504 4.99998 9.95834 4.99998L10.7917 4.99998C10.8767 4.99998 10.9534 4.95864 10.9849 4.89548C10.9951 4.8753 11 4.85414 11 4.83331C11 4.78872 10.9776 4.74509 10.9357 4.71287L6.14413 1.04615C6.06356 0.984616 5.93661 0.984616 5.85604 1.04615Z" fill="#0E3770" stroke="#0E3770" stroke-width="0.5"/>
</svg>
