<svg width="20" height="20" viewBox="0 0 20 20" fill="none" xmlns="http://www.w3.org/2000/svg">
<path d="M16.9375 19H3.06255C1.92477 19 1 18.0752 1 16.9375V4.56245C1 3.42468 1.92477 2.50005 3.06255 2.50005H16.9375C18.0752 2.50005 19 3.42468 19 4.56245V16.9375C19 18.0752 18.0752 19 16.9375 19ZM3.06255 3.62505C2.54578 3.62505 2.125 4.04568 2.125 4.56245V16.9375C2.125 17.4542 2.54578 17.875 3.06255 17.875H16.9375C17.4542 17.875 17.875 17.4542 17.875 16.9375V4.56245C17.875 4.04568 17.4542 3.62505 16.9375 3.62505H3.06255Z" fill="#0E3770"/>
<path d="M18.4375 8.12505H1.5625C1.252 8.12505 1 7.87305 1 7.56255C1 7.25204 1.252 7.00005 1.5625 7.00005H18.4375C18.748 7.00005 19 7.25204 19 7.56255C19 7.87305 18.748 8.12505 18.4375 8.12505Z" fill="#0E3770"/>
<path d="M5.31255 5.5C5.00204 5.5 4.75005 5.248 4.75005 4.9375V1.5625C4.75005 1.252 5.00204 1 5.31255 1C5.62305 1 5.87505 1.252 5.87505 1.5625V4.9375C5.87505 5.248 5.62305 5.5 5.31255 5.5Z" fill="#0E3770"/>
<path d="M14.6875 5.5C14.377 5.5 14.125 5.248 14.125 4.9375V1.5625C14.125 1.252 14.377 1 14.6875 1C14.998 1 15.25 1.252 15.25 1.5625V4.9375C15.25 5.248 14.998 5.5 14.6875 5.5Z" fill="#0E3770"/>
<path d="M16.9375 19H3.06255C1.92477 19 1 18.0752 1 16.9375V4.56245C1 3.42468 1.92477 2.50005 3.06255 2.50005H16.9375C18.0752 2.50005 19 3.42468 19 4.56245V16.9375C19 18.0752 18.0752 19 16.9375 19ZM3.06255 3.62505C2.54578 3.62505 2.125 4.04568 2.125 4.56245V16.9375C2.125 17.4542 2.54578 17.875 3.06255 17.875H16.9375C17.4542 17.875 17.875 17.4542 17.875 16.9375V4.56245C17.875 4.04568 17.4542 3.62505 16.9375 3.62505H3.06255Z" stroke="#0E3770" stroke-width="0.5"/>
<path d="M18.4375 8.12505H1.5625C1.252 8.12505 1 7.87305 1 7.56255C1 7.25204 1.252 7.00005 1.5625 7.00005H18.4375C18.748 7.00005 19 7.25204 19 7.56255C19 7.87305 18.748 8.12505 18.4375 8.12505Z" stroke="#0E3770" stroke-width="0.5"/>
<path d="M5.31255 5.5C5.00204 5.5 4.75005 5.248 4.75005 4.9375V1.5625C4.75005 1.252 5.00204 1 5.31255 1C5.62305 1 5.87505 1.252 5.87505 1.5625V4.9375C5.87505 5.248 5.62305 5.5 5.31255 5.5Z" stroke="#0E3770" stroke-width="0.5"/>
<path d="M14.6875 5.5C14.377 5.5 14.125 5.248 14.125 4.9375V1.5625C14.125 1.252 14.377 1 14.6875 1C14.998 1 15.25 1.252 15.25 1.5625V4.9375C15.25 5.248 14.998 5.5 14.6875 5.5Z" stroke="#0E3770" stroke-width="0.5"/>
</svg>
