<svg width="18" height="18" viewBox="0 0 18 18" fill="none" xmlns="http://www.w3.org/2000/svg">
<g clip-path="url(#clip0)">
<path fill-rule="evenodd" clip-rule="evenodd" d="M0 0H35.9946V11.9547H0V0Z" fill="#B20000"/>
<path fill-rule="evenodd" clip-rule="evenodd" d="M0 11.9548H35.9946V17.9992H0V11.9548Z" fill="#429F00"/>
<path fill-rule="evenodd" clip-rule="evenodd" d="M0 0H3.98368V17.9955H0V0Z" fill="white"/>
<path fill-rule="evenodd" clip-rule="evenodd" d="M0.188662 0.304763H0.380953V0.609526H0.188662V0.304763ZM0.758278 0.304763H1.32789V0.609526H0.761906L0.758278 0.304763ZM0.94694 0H1.13923V0.304763H0.943312L0.94694 0ZM1.89751 0H2.08617V0.304763H1.89751V0ZM2.65941 0.304763H3.2254V0.609526H2.65579L2.65941 0.304763ZM2.84445 0H3.03311V0.304763H2.84445V0ZM0.569615 0.609526H0.950568V0.914288H0.569615V0.609526ZM1.13923 0.609526H1.52018V0.914288H1.13923V0.609526ZM2.46712 0.609526H2.84808V0.914288H2.46712V0.609526ZM3.03674 0.609526H3.41044V0.914288H3.04037L3.03674 0.609526ZM0.380953 0.914288H0.758278V1.21905H0.380953V0.914288ZM1.32789 0.914288H1.70885V1.21905H1.32789V0.914288ZM2.27846 0.914288H2.65579V1.21905H2.27846V0.914288ZM3.2254 0.914288H3.60635V1.21905H3.2254V0.914288ZM3.60635 0.304763H3.79502V0.609526H3.60635V0.304763ZM0.188662 1.21905H0.569615V1.52381H0.188662V1.21905ZM1.51656 1.21905H1.89751V1.52381H1.51656V1.21905ZM3.41769 1.21905H3.79502V1.52381H3.41769V1.21905ZM0.380953 2.1406H0.758278V2.44536H0.380953V2.1406ZM0.569615 2.44536H0.950568V2.75012H0.569615V2.44536ZM1.33152 2.1406H1.70522V2.44536H1.32789L1.33152 2.1406ZM1.13923 2.44536H1.51656V2.75012H1.13923V2.44536ZM0.758278 2.75012H1.32789V3.04763H0.761906L0.758278 2.75012ZM0.94694 3.04763H1.13923V3.35602H0.943312L0.94694 3.04763ZM2.27846 2.13334H2.65579V2.44173H2.27846V2.13334ZM2.46712 2.44173H2.84808V2.74649H2.46712V2.44173ZM3.22903 2.13697H3.60635V2.44173H3.2254L3.22903 2.13697ZM3.03674 2.44173H3.41044V2.74649H3.04037L3.03674 2.44173ZM2.65579 2.74649H3.22903V3.04763H2.65579V2.74649ZM2.84808 3.04763H3.03674V3.35602H2.84808V3.04763ZM1.89751 2.74649H2.08617V3.04763H1.89751V2.74649ZM0 2.74649H0.188662V3.04763H0V2.74649ZM3.79502 2.74649H3.98368V3.04763H3.79502V2.74649ZM0.94694 4.27031H1.13923V4.57507H0.943312L0.94694 4.27031ZM0.758278 4.57507H1.32789V4.87983H0.761906L0.758278 4.57507ZM0.569615 4.87983H1.52018V5.1846H0.569615V4.87983ZM2.84808 4.27031H3.03674V4.57507H2.84808V4.27031Z" fill="#B20000"/>
<path fill-rule="evenodd" clip-rule="evenodd" d="M2.65579 4.575H3.22903V4.87976H2.65579V4.575ZM2.46712 4.87976H3.41406V5.18452H2.46712V4.87976ZM2.65579 6.40357H3.60635V6.71196H2.65579V6.40357ZM2.27846 5.18815H3.60635V5.49291H2.27846V5.18815ZM0.380953 5.18815H1.70522V5.49291H0.380953V5.18815ZM0.569615 6.71196H1.13923V7.02035H0.569615V6.71196ZM0.380953 6.41083H1.32789V6.71559H0.380953V6.41083ZM3.03674 5.79768H3.98368V6.10607H3.04037L3.03674 5.79768ZM2.84808 6.71196H3.41769V7.01673H2.84808V6.71196ZM0.758278 7.01673H0.950568V7.32149H0.758278V7.01673ZM3.03674 7.01673H3.2254V7.32149H3.03674V7.01673ZM0 5.79405H0.950568V6.10244H0V5.79405ZM1.70522 6.4072H2.27846V6.71196H1.70522V6.4072ZM1.89751 6.71196H2.08617V7.01673H1.89751V6.71196ZM1.32789 5.79405H2.65579V6.10244H1.32789V5.79405ZM2.0898 1.22261H2.46712V1.52374H2.08617L2.0898 1.22261ZM1.70522 1.52374H2.27483V1.82851H1.70522V1.52374ZM1.51293 1.82851H1.89388V2.13327H1.51656L1.51293 1.82851ZM2.08254 1.82851H2.46712V2.13327H2.08617L2.08254 1.82851ZM0 1.52374H0.380953V1.82851H0V1.52374ZM0.188662 1.82851H0.569615V2.13327H0.188662V1.82851ZM3.60635 1.52374H3.98368V1.82851H3.60635V1.52374ZM3.41044 1.82851H3.79139V2.13327H3.41769L3.41044 1.82851ZM0 4.575H0.188662V4.87976H0V4.575ZM3.79502 4.575H3.98368V4.87976H3.79502V4.575ZM1.70885 7.01673H2.27846V7.32149H1.70522L1.70885 7.01673ZM1.51656 7.32149H1.89751V7.62625H1.51656V7.32149ZM2.08617 7.32149H2.46712V7.62625H2.08617V7.32149ZM1.32789 7.62625H1.70885V7.93101H1.32789V7.62625ZM2.27846 7.62625H2.65579V7.93101H2.27846V7.62625ZM1.13923 7.93101H1.52018V8.23578H1.13923V7.93101ZM2.46712 7.93101H2.84808V8.23578H2.46712V7.93101ZM0.94694 8.23578H1.32789V8.54054H0.94694V8.23578ZM2.65579 8.23578H3.03674V8.54054H2.65579V8.23578ZM0.569615 8.54054H1.13923V8.8453H0.569615V8.54054ZM2.84808 8.54054H3.41769V8.8453H2.84808V8.54054ZM3.2254 8.23578H3.60635V8.54054H3.2254V8.23578ZM3.41769 7.93101H3.79502V8.23578H3.41769V7.93101ZM3.60635 7.62625H3.98368V7.93101H3.60635V7.62625ZM0.377325 8.23578H0.761906V8.54054H0.380953L0.377325 8.23578ZM0.188662 7.93101H0.569615V8.23578H0.188662V7.93101Z" fill="#B20000"/>
<path fill-rule="evenodd" clip-rule="evenodd" d="M0 7.62633H0.380953V7.93109H0V7.62633ZM0.761906 8.84538H0.950568V9.15014H0.758278L0.761906 8.84538ZM3.03674 8.84538H3.2254V9.15014H3.03674V8.84538ZM1.89751 7.93109H2.08617V8.23585H1.89751V7.93109ZM1.32789 8.84538H1.51656V9.15014H1.32789V8.84538ZM2.46712 8.84538H2.65579V9.15014H2.46712V8.84538ZM1.89751 8.84538H2.08617V9.15014H1.89751V8.84538ZM0 8.84538H0.188662V9.15014H0V8.84538ZM3.79502 8.84538H3.98368V9.15014H3.79502V8.84538ZM1.89751 4.57507H2.08617V4.87984H1.89751V4.57507ZM0.950568 1.52745H1.13923V1.82858H0.950568V1.52745ZM2.84808 1.52745H3.03674V1.82858H2.84808V1.52745ZM1.70522 3.65716H2.27483V3.96192H1.70522V3.65716ZM1.32789 3.96555H1.89751V4.27031H1.32789V3.96555Z" fill="#B20000"/>
<path fill-rule="evenodd" clip-rule="evenodd" d="M1.51655 4.27037H1.70884V4.57513H1.51655V4.27037ZM1.13922 3.66084H1.52017V3.96561H1.13922V3.66084ZM1.32788 3.35608H1.8975V3.66084H1.32788V3.35608ZM1.51655 3.05132H1.70884V3.35608H1.51655V3.05132ZM2.08616 3.35608H2.65578V3.66084H2.08616V3.35608ZM2.27845 3.05132H2.46711V3.35608H2.27845V3.05132ZM2.46711 3.66084H2.84807V3.96561H2.46711V3.66084ZM2.08616 3.96561H2.65578V4.27037H2.08616V3.96561ZM2.27845 4.27037H2.46711V4.57513H2.27845V4.27037ZM3.03673 3.66084H3.41768V3.96561H3.03673V3.66084ZM3.22539 3.35608H3.79501V3.66084H3.22902L3.22539 3.35608ZM3.60635 3.66084H3.98367V3.96561H3.60635V3.66084Z" fill="#B20000"/>
<path fill-rule="evenodd" clip-rule="evenodd" d="M3.22903 3.96561H3.79502V4.27037H3.22903V3.96561ZM3.4177 4.27037H3.60636V4.57513H3.4177V4.27037ZM3.4177 3.05132H3.60636V3.35608H3.4177V3.05132ZM0 3.66084H0.380953V3.96561H0V3.66084ZM0.188663 3.35608H0.761907V3.66084H0.188663V3.35608ZM0.569616 3.66084H0.950569V3.96561H0.569616V3.66084Z" fill="#B20000"/>
<path fill-rule="evenodd" clip-rule="evenodd" d="M0.188662 3.9656H0.761906V4.27036H0.188662V3.9656ZM0.380953 4.27036H0.569615V4.57513H0.380953V4.27036ZM0.380953 3.05132H0.569615V3.35608H0.380953V3.05132ZM0.188662 5.48941H0.950568V5.79418H0.188662V5.48941ZM1.13923 5.48941H1.90114V5.79418H1.13923V5.48941ZM2.08617 5.48941H2.84808V5.79418H2.08617V5.48941ZM3.03674 5.48941H3.79865V5.79418H3.03674V5.48941ZM1.51656 6.09894H2.46712V6.40733H1.51656V6.09894ZM0.188662 6.09894H1.13923V6.40733H0.188662V6.09894ZM2.84808 6.09894H3.79502V6.40733H2.84808V6.09894ZM3.79502 7.32162H3.98368V7.62638H3.79502V7.32162ZM0 7.32162H0.188662V7.62638H0V7.32162ZM0.188662 17.6944H0.380953V17.386H0.188662V17.6944ZM0.758278 17.6944H1.32789V17.386H0.761906L0.758278 17.6944ZM0.94694 17.9956H1.13923V17.6944H0.943312L0.94694 17.9956ZM1.89751 17.9956H2.08617V17.6944H1.89751V17.9956ZM2.65941 17.6944H3.2254V17.3897H2.65579L2.65941 17.6944ZM2.84808 17.9956H3.03674V17.6944H2.84808V17.9956ZM0.569615 17.386H0.950568V17.0813H0.569615V17.386ZM1.13923 17.386H1.52018V17.0813H1.13923V17.386ZM2.46712 17.386H2.84808V17.0813H2.46712V17.386ZM3.03674 17.386H3.41044V17.0813H3.04037L3.03674 17.386ZM1.33152 17.0813H1.70522V16.7765H1.32789L1.33152 17.0813ZM2.27483 17.0813H2.65579V16.7765H2.27846L2.27483 17.0813ZM3.2254 17.0813H3.60635V16.7765H3.2254V17.0813ZM3.60635 17.6944H3.79502V17.386H3.60635V17.6944ZM0.188662 16.7765H0.569615V16.4717H0.188662V16.7765ZM1.51656 16.7765H1.89751V16.4717H1.51656V16.7765ZM3.41769 16.7765H3.79502V16.4717H3.41769V16.7765ZM0.380953 15.8622H0.758278V15.5575H0.380953V15.8622ZM0.569615 15.5575H0.950568V15.2527H0.569615V15.5575ZM1.33152 15.8622H1.70522V15.5575H1.32789L1.33152 15.8622ZM1.13923 15.5575H1.51656V15.2527H1.13923V15.5575ZM0.758278 15.2527H1.32789V14.9479H0.761906L0.758278 15.2527ZM0.94694 14.9479H1.13923V14.6432H0.943312L0.94694 14.9479ZM2.27846 15.8622H2.65579V15.5575H2.27846V15.8622ZM2.46712 15.5575H2.84808V15.2527H2.46712V15.5575ZM3.22903 15.8622H3.60635V15.5575H3.2254L3.22903 15.8622ZM3.03674 15.5575H3.41044V15.2527H3.04037L3.03674 15.5575ZM2.65579 15.2527H3.22903V14.9479H2.65579V15.2527ZM2.84808 14.9479H3.03674V14.6432H2.84808V14.9479ZM1.89751 15.2527H2.08617V14.9479H1.89751V15.2527ZM0 15.2527H0.188662V14.9479H0V15.2527ZM3.79502 15.2527H3.98368V14.9479H3.79502V15.2527ZM0.950568 13.7289H1.13923V13.4205H0.950568V13.7289Z" fill="#B20000"/>
<path fill-rule="evenodd" clip-rule="evenodd" d="M0.761906 13.4241H1.32789V13.1157H0.761906V13.4241ZM0.569615 13.1157H1.52018V12.8109H0.569615V13.1157ZM2.84808 13.7252H3.03674V13.4241H2.84808V13.7252ZM2.65579 13.4241H3.22903V13.1157H2.65579V13.4241ZM2.46712 13.1157H3.41406V12.8109H2.46712V13.1157ZM2.65579 11.5919H3.60635V11.2871H2.65579V11.5919ZM2.27846 12.8109H3.60635V12.5062H2.27846V12.8109ZM0.380953 12.8109H1.70522V12.5062H0.380953V12.8109ZM0.569615 11.2871H1.13923V10.9824H0.569615V11.2871ZM0.380953 11.5919H1.32789V11.2871H0.380953V11.5919ZM3.03674 12.2014H3.98368V11.9003H3.04037L3.03674 12.2014ZM2.84808 11.2871H3.41769V10.9824H2.84808V11.2871ZM0 12.2014H0.950568V11.9003H0V12.2014ZM1.70522 11.5919H2.27846V11.2871H1.70522V11.5919ZM1.89751 11.2871H2.08617V10.9824H1.89751V11.2871ZM1.32789 12.2014H2.65579V11.9003H1.32789V12.2014ZM2.0898 16.7765H2.46712V16.4717H2.08617L2.0898 16.7765ZM1.70522 16.4717H2.27483V16.1669H1.70522V16.4717ZM1.51293 16.1669H1.89388V15.8622H1.51656L1.51293 16.1669ZM2.08254 16.1669H2.46712V15.8622H2.08617L2.08254 16.1669ZM0 16.4717H0.380953V16.1669H0V16.4717ZM0.188662 16.1669H0.569615V15.8622H0.188662V16.1669ZM3.60635 16.4717H3.98368V16.1669H3.60635V16.4717ZM3.41406 16.1669H3.79502V15.8622H3.41769L3.41406 16.1669ZM0 13.4241H0.188662V13.1193H0V13.4241ZM3.79502 13.4241H3.98368V13.1193H3.79502V13.4241ZM1.51656 10.6812H1.89751V10.3765H1.51656V10.6812ZM2.08617 10.6812H2.46712V10.3765H2.08617V10.6812ZM1.32789 10.3765H1.70885V10.0717H1.32789V10.3765ZM2.27846 10.3765H2.65579V10.0717H2.27846V10.3765ZM1.13923 10.0681H1.51656V9.75967H1.13923V10.0681ZM2.46712 10.0681H2.84808V9.75967H2.46712V10.0681ZM0.94694 9.75967H1.32789V9.45854H0.94694V9.75967ZM2.65579 9.75967H3.03674V9.45854H2.65579V9.75967ZM0.569615 9.45854H1.13923V9.15015H0.569615V9.45854ZM2.84808 9.45854H3.41769V9.15015H2.84808V9.45854ZM3.2254 9.7633H3.60635V9.45491H3.2254V9.7633ZM3.41769 10.0644H3.79502V9.7633H3.41769V10.0644ZM3.60635 10.3728H3.98368V10.0681H3.60635V10.3728ZM0.377325 9.7633H0.761906V9.45491H0.380953L0.377325 9.7633ZM0.188662 10.0644H0.569615V9.7633H0.188662V10.0644ZM0 10.3765H0.380953V10.0717H0V10.3765ZM0.761906 9.15378H0.950568V8.84901H0.758278L0.761906 9.15378ZM1.89751 10.0717H2.08617V9.75967H1.89751V10.0717ZM1.89751 13.4277H2.08617V13.1193H1.89751V13.4277ZM0.950568 16.4753H1.13923V16.1706H0.950568V16.4753ZM2.84808 16.4753H3.03674V16.1706H2.84808V16.4753ZM1.70522 14.3384H2.27483V14.0336H1.70522V14.3384ZM1.32427 14.0336H1.89388V13.7288H1.32789L1.32427 14.0336ZM1.51293 13.7252H1.70522V13.4241H1.51293V13.7252ZM1.1356 14.3384H1.51293V14.0336H1.13923L1.1356 14.3384ZM1.32789 14.6431H1.89751V14.3384H1.32789V14.6431ZM1.51656 14.9479H1.70885V14.6431H1.51656V14.9479ZM2.08617 14.6431H2.65579V14.3384H2.08617V14.6431ZM2.27846 14.9479H2.46712V14.6431H2.27846V14.9479ZM2.46712 14.3384H2.84808V14.0336H2.46712V14.3384ZM2.08617 14.0336H2.65579V13.7288H2.08617V14.0336ZM2.27846 13.7252H2.46712V13.4241H2.27846V13.7252ZM3.03674 14.3384H3.41044V14.0336H3.04037L3.03674 14.3384ZM3.2254 14.6431H3.79502V14.3384H3.22903L3.2254 14.6431ZM3.60635 14.3384H3.98368V14.0336H3.60635V14.3384ZM3.2254 14.0336H3.79502V13.7288H3.22903L3.2254 14.0336ZM3.41769 13.7252H3.60635V13.4241H3.41769V13.7252ZM3.41769 14.9479H3.60635V14.6431H3.41769V14.9479ZM0 14.3384H0.380953V14.0336H0V14.3384Z" fill="#B20000"/>
<path fill-rule="evenodd" clip-rule="evenodd" d="M0.188662 14.6432H0.761906V14.3384H0.188662V14.6432ZM0.569615 14.3384H0.950568V14.0337H0.569615V14.3384ZM0.188662 14.0337H0.761906V13.7289H0.188662V14.0337ZM0.380953 13.7253H0.569615V13.4241H0.380953V13.7253ZM0.380953 14.948H0.569615V14.6432H0.380953V14.948ZM0.188662 12.5062H0.950568V12.2015H0.188662V12.5062ZM1.13923 12.5062H1.90114V12.2015H1.13923V12.5062ZM2.08617 12.5062H2.84808V12.2015H2.08617V12.5062ZM3.03674 12.5062H3.79865V12.2015H3.03674V12.5062ZM1.51656 11.9003H2.46712V11.5956H1.51656V11.9003ZM0.188662 11.9003H1.13923V11.5956H0.188662V11.9003ZM2.84808 11.9003H3.79502V11.5956H2.84808V11.9003ZM3.79502 10.6813H3.98368V10.3765H3.79502V10.6813ZM0 10.6776H0.188662V10.3729H0V10.6776ZM1.70522 9.15383H1.89751V9.45497H1.70885L1.70522 9.15383ZM2.08617 9.15383H2.27846V9.45497H2.08617V9.15383ZM2.08617 8.54068H2.27846V8.84544H2.08617V8.54068ZM1.70885 8.54068H1.89751V8.84544H1.70885V8.54068ZM0.380953 16.7765H0.758278V17.0813H0.380953V16.7765ZM3.03674 10.9824H3.2254V10.6776H3.03674V10.9824ZM0.758278 10.9824H0.94694V10.6776H0.761906L0.758278 10.9824ZM1.70885 10.6776H2.27846V10.9824H1.70522L1.70885 10.6776Z" fill="#B20000"/>
</g>
<defs>
<clipPath id="clip0">
<rect width="18" height="18" rx="2" fill="white"/>
</clipPath>
</defs>
</svg>
