<svg width="18" height="18" viewBox="0 0 18 18" fill="none" xmlns="http://www.w3.org/2000/svg">
<g clip-path="url(#clip0)">
<path fill-rule="evenodd" clip-rule="evenodd" d="M0 0H34.2003V1.38463H0V0ZM0 2.76926H34.2003V4.15388H0V2.76926ZM0 5.53851H34.2003V6.92314H0V5.53851ZM0 8.30777H34.2003V9.6924H0V8.30777ZM0 11.077H34.2003V12.4617H0V11.077ZM0 13.8463H34.2003V15.2309H0V13.8463ZM0 16.6155H34.2003V18.0002H0V16.6155Z" fill="#BD3D44"/>
<path fill-rule="evenodd" clip-rule="evenodd" d="M0 1.38469H34.2003V2.76932H0V1.38469ZM0 4.15395H34.2003V5.53858H0V4.15395ZM0 6.92321H34.2003V8.30784H0V6.92321ZM0 9.69246H34.2003V11.0771H0V9.69246ZM0 12.4617H34.2003V13.8464H0V12.4617ZM0 15.231H34.2003V16.6156H0V15.231Z" fill="white"/>
<path fill-rule="evenodd" clip-rule="evenodd" d="M0 0H13.6801V9.69239H0V0Z" fill="#192F5D"/>
<path fill-rule="evenodd" clip-rule="evenodd" d="M1.13548 0.415413L1.27395 0.803109H1.66164L1.34318 1.0385L1.46779 1.41234L1.13548 1.17696L0.830863 1.41234L0.95548 1.0385L0.623169 0.803109H1.03856L1.13548 0.415413ZM3.42012 0.415413L3.54474 0.803109H3.94628L3.61397 1.0385L3.75243 1.41234L3.42012 1.17696L3.08781 1.41234L3.22627 1.0385L2.89396 0.803109H3.2955L3.42012 0.415413ZM5.70476 0.415413L5.82938 0.803109H6.23092L5.89861 1.0385L6.03707 1.41234L5.70476 1.17696L5.37245 1.41234L5.51091 1.0385L5.1786 0.803109H5.58014L5.70476 0.415413ZM7.97555 0.415413L8.11402 0.803109H8.50171L8.18325 1.0385L8.30787 1.41234L7.97555 1.17696L7.65709 1.41234L7.78171 1.0385L7.4494 0.803109H7.86478L7.97555 0.415413ZM10.2602 0.415413L10.3848 0.803109H10.7864L10.454 1.0385L10.5925 1.41234L10.2463 1.17696L9.92788 1.41234L10.0525 1.0385L9.72019 0.803109H10.1217L10.2602 0.415413ZM12.5448 0.415413L12.6695 0.803109H13.071L12.7387 1.0385L12.8771 1.41234L12.5448 1.17696L12.2125 1.41234L12.351 1.0385L12.0187 0.803109H12.4202L12.5448 0.415413ZM2.28473 1.38465L2.40934 1.77235H2.81088L2.47857 2.00773L2.61704 2.38158L2.28473 2.1462L1.95241 2.38158L2.09088 2.00773L1.75857 1.77235H2.16011L2.28473 1.38465ZM4.55552 1.38465L4.69398 1.77235H5.08168L4.76321 2.00773L4.88783 2.38158L4.55552 2.1462L4.23705 2.38158L4.36167 2.00773L4.02936 1.77235H4.44475L4.55552 1.38465ZM6.84016 1.38465L6.96477 1.77235H7.36632L7.03401 2.00773L7.17247 2.38158L6.84016 2.1462L6.50785 2.38158L6.64631 2.00773L6.314 1.77235H6.71554L6.84016 1.38465ZM9.1248 1.38465L9.24941 1.77235H9.65096L9.31865 2.00773L9.45711 2.38158L9.1248 2.1462L8.79249 2.38158L8.93095 2.00773L8.59864 1.77235H9.00018L9.1248 1.38465ZM11.3956 1.38465L11.5341 1.77235H11.9079L11.5894 2.00773L11.7141 2.38158L11.3817 2.1462L11.0633 2.38158L11.1879 2.00773L10.8556 1.77235H11.271L11.3956 1.38465ZM1.14933 2.35389L1.2601 2.74159H1.67549L1.34318 2.97697L1.46779 3.35082L1.13548 3.11544L0.830863 3.35082L0.95548 2.97697L0.623169 2.74159H1.03856L1.14933 2.35389ZM3.42012 2.35389L3.54474 2.74159H3.94628L3.62782 2.97697L3.75243 3.35082L3.42012 3.11544L3.10166 3.35082L3.22627 2.97697L2.89396 2.74159H3.2955L3.42012 2.35389ZM5.70476 2.35389L5.82938 2.74159H6.23092L5.89861 2.97697L6.03707 3.35082L5.70476 3.11544L5.37245 3.35082L5.51091 2.97697L5.1786 2.74159H5.58014L5.70476 2.35389ZM7.97555 2.35389L8.11402 2.74159H8.50171L8.18325 2.97697L8.30787 3.35082L7.97555 3.11544L7.65709 3.35082L7.78171 2.97697L7.4494 2.74159H7.86478L7.97555 2.35389ZM10.2602 2.35389L10.3848 2.74159H10.7864L10.4679 2.97697L10.5925 3.35082L10.2602 3.11544L9.94173 3.35082L10.0663 2.97697L9.73403 2.74159H10.1356L10.2602 2.35389ZM12.5448 2.35389L12.6695 2.74159H13.071L12.7387 2.97697L12.8771 3.35082L12.5448 3.11544L12.2125 3.35082L12.351 2.97697L12.0187 2.74159H12.4202L12.5448 2.35389ZM2.28473 3.32313L2.40934 3.71083H2.81088L2.47857 3.94621L2.61704 4.32006L2.28473 4.08468L1.95241 4.32006L2.09088 3.94621L1.75857 3.71083H2.16011L2.28473 3.32313ZM4.55552 3.32313L4.69398 3.71083H5.08168L4.76321 3.94621L4.88783 4.32006L4.55552 4.08468L4.23705 4.32006L4.36167 3.94621L4.02936 3.71083H4.44475L4.55552 3.32313ZM6.84016 3.32313L6.96477 3.71083H7.36632L7.04785 3.94621L7.17247 4.32006L6.84016 4.08468L6.52169 4.32006L6.64631 3.94621L6.314 3.71083H6.71554L6.84016 3.32313ZM9.1248 3.32313L9.24941 3.71083H9.65096L9.31865 3.94621L9.45711 4.32006L9.1248 4.08468L8.79249 4.32006L8.93095 3.94621L8.59864 3.71083H9.00018L9.1248 3.32313ZM11.3956 3.32313L11.5341 3.71083H11.9079L11.5894 3.94621L11.7141 4.32006L11.3817 4.08468L11.0633 4.32006L11.1879 3.94621L10.8556 3.71083H11.271L11.3956 3.32313ZM1.14933 4.29237L1.2601 4.68007H1.67549L1.34318 4.91545L1.46779 5.2893L1.13548 5.05392L0.830863 5.2893L0.95548 4.91545L0.623169 4.68007H1.03856L1.14933 4.29237ZM3.42012 4.29237L3.54474 4.68007H3.94628L3.62782 4.91545L3.75243 5.2893L3.42012 5.05392L3.10166 5.2893L3.22627 4.91545L2.89396 4.68007H3.2955L3.42012 4.29237ZM5.70476 4.29237L5.82938 4.68007H6.23092L5.89861 4.91545L6.03707 5.2893L5.70476 5.05392L5.37245 5.2893L5.51091 4.91545L5.1786 4.68007H5.58014L5.70476 4.29237ZM7.97555 4.29237L8.11402 4.68007H8.50171L8.18325 4.91545L8.30787 5.2893L7.97555 5.05392L7.65709 5.2893L7.78171 4.91545L7.4494 4.68007H7.86478L7.97555 4.29237ZM10.2602 4.29237L10.3848 4.68007H10.7864L10.4679 4.91545L10.5925 5.2893L10.2602 5.05392L9.94173 5.2893L10.0663 4.91545L9.73403 4.68007H10.1356L10.2602 4.29237ZM12.5448 4.29237L12.6695 4.68007H13.071L12.7387 4.91545L12.8771 5.2893L12.5448 5.05392L12.2125 5.2893L12.351 4.91545L12.0187 4.68007H12.4202L12.5448 4.29237ZM2.28473 5.26161L2.40934 5.64931H2.81088L2.47857 5.88469L2.61704 6.25854L2.28473 6.02316L1.95241 6.25854L2.09088 5.88469L1.75857 5.64931H2.16011L2.28473 5.26161ZM4.55552 5.26161L4.69398 5.64931H5.08168L4.76321 5.88469L4.88783 6.25854L4.55552 6.02316L4.23705 6.25854L4.36167 5.88469L4.02936 5.64931H4.44475L4.55552 5.26161ZM6.84016 5.26161L6.96477 5.64931H7.36632L7.04785 5.88469L7.17247 6.25854L6.84016 6.02316L6.52169 6.25854L6.64631 5.88469L6.314 5.64931H6.71554L6.84016 5.26161ZM9.1248 5.26161L9.24941 5.64931H9.65096L9.31865 5.88469L9.45711 6.25854L9.1248 6.02316L8.79249 6.25854L8.93095 5.88469L8.59864 5.64931H9.00018L9.1248 5.26161ZM11.3956 5.26161L11.5341 5.64931H11.9079L11.5894 5.88469L11.7141 6.25854L11.3817 6.02316L11.0633 6.25854L11.1879 5.88469L10.8556 5.64931H11.271L11.3956 5.26161ZM1.14933 6.23085L1.2601 6.61855H1.67549L1.34318 6.85393L1.46779 7.22778L1.13548 6.9924L0.830863 7.22778L0.95548 6.85393L0.623169 6.61855H1.03856L1.14933 6.23085ZM3.42012 6.23085L3.54474 6.61855H3.94628L3.62782 6.85393L3.75243 7.22778L3.42012 6.9924L3.10166 7.22778L3.22627 6.85393L2.89396 6.61855H3.2955L3.42012 6.23085ZM5.70476 6.23085L5.82938 6.61855H6.23092L5.89861 6.85393L6.03707 7.22778L5.70476 6.9924L5.37245 7.22778L5.51091 6.85393L5.1786 6.61855H5.58014L5.70476 6.23085ZM7.97555 6.23085L8.11402 6.61855H8.50171L8.18325 6.85393L8.30787 7.22778L7.97555 6.9924L7.65709 7.22778L7.78171 6.85393L7.4494 6.61855H7.86478L7.97555 6.23085ZM10.2602 6.23085L10.3848 6.61855H10.7864L10.4679 6.85393L10.5925 7.22778L10.2602 6.9924L9.94173 7.22778L10.0663 6.85393L9.73403 6.61855H10.1356L10.2602 6.23085ZM12.5448 6.23085L12.6695 6.61855H13.071L12.7387 6.85393L12.8771 7.22778L12.5448 6.9924L12.2125 7.22778L12.351 6.85393L12.0187 6.61855H12.4202L12.5448 6.23085ZM2.28473 7.20009L2.40934 7.58779H2.81088L2.47857 7.82317L2.61704 8.19702L2.28473 7.96163L1.95241 8.19702L2.09088 7.82317L1.75857 7.58779H2.16011L2.28473 7.20009ZM4.55552 7.20009L4.69398 7.58779H5.08168L4.76321 7.82317L4.88783 8.19702L4.55552 7.96163L4.23705 8.19702L4.36167 7.82317L4.02936 7.58779H4.44475L4.55552 7.20009ZM6.84016 7.20009L6.96477 7.58779H7.36632L7.04785 7.82317L7.17247 8.19702L6.84016 7.96163L6.52169 8.19702L6.64631 7.82317L6.314 7.58779H6.71554L6.84016 7.20009ZM9.1248 7.20009L9.24941 7.58779H9.65096L9.31865 7.82317L9.45711 8.19702L9.1248 7.96163L8.79249 8.19702L8.93095 7.82317L8.59864 7.58779H9.00018L9.1248 7.20009ZM11.3956 7.20009L11.5341 7.58779H11.9079L11.5894 7.82317L11.7141 8.19702L11.3817 7.96163L11.0633 8.19702L11.1879 7.82317L10.8556 7.58779H11.271L11.3956 7.20009ZM1.14933 8.16933L1.2601 8.55702H1.67549L1.34318 8.79241L1.46779 9.16626L1.13548 8.93087L0.830863 9.16626L0.95548 8.79241L0.623169 8.55702H1.03856L1.14933 8.16933ZM3.42012 8.16933L3.54474 8.55702H3.94628L3.62782 8.79241L3.75243 9.16626L3.42012 8.93087L3.10166 9.16626L3.22627 8.79241L2.89396 8.55702H3.2955L3.42012 8.16933ZM5.70476 8.16933L5.82938 8.55702H6.23092L5.89861 8.79241L6.03707 9.16626L5.70476 8.93087L5.37245 9.16626L5.51091 8.79241L5.1786 8.55702H5.58014L5.70476 8.16933ZM7.97555 8.16933L8.11402 8.55702H8.50171L8.18325 8.79241L8.30787 9.16626L7.97555 8.93087L7.65709 9.16626L7.78171 8.79241L7.4494 8.55702H7.86478L7.97555 8.16933ZM10.2602 8.16933L10.3848 8.55702H10.7864L10.4679 8.79241L10.5925 9.16626L10.2602 8.93087L9.94173 9.16626L10.0663 8.79241L9.73403 8.55702H10.1356L10.2602 8.16933ZM12.5448 8.16933L12.6695 8.55702H13.071L12.7387 8.79241L12.8771 9.16626L12.5448 8.93087L12.2125 9.16626L12.351 8.79241L12.0187 8.55702H12.4202L12.5448 8.16933Z" fill="white"/>
</g>
<defs>
<clipPath id="clip0">
<rect width="18" height="18" rx="2" fill="white"/>
</clipPath>
</defs>
</svg>
