<svg width="20" height="20" viewBox="0 0 20 20" fill="none" xmlns="http://www.w3.org/2000/svg">
<path d="M8.93735 1C4.56074 1 1 4.55956 1 8.93478C1 13.31 4.56077 16.8696 8.93735 16.8696C13.3139 16.8696 16.8747 13.31 16.8747 8.93478C16.8747 4.55956 13.314 1 8.93735 1ZM8.93735 15.5652C5.27814 15.5652 2.30121 12.5906 2.30121 8.93475C2.30121 5.27866 5.27814 2.30431 8.93735 2.30431C12.5966 2.30431 15.5735 5.27866 15.5735 8.93475C15.5735 12.5906 12.5966 15.5652 8.93735 15.5652Z" fill="#0E3770"/>
<path d="M18.8083 17.8854L14.536 13.6246C14.2812 13.3707 13.8694 13.3717 13.6159 13.627C13.3626 13.8824 13.3636 14.2952 13.6182 14.5494L17.8905 18.8102C18.0176 18.9367 18.1833 19 18.3494 19C18.5166 19 18.6836 18.9359 18.8107 18.8078C19.064 18.5524 19.0629 18.1396 18.8083 17.8854Z" fill="#0E3770"/>
<path d="M8.93735 1C4.56074 1 1 4.55956 1 8.93478C1 13.31 4.56077 16.8696 8.93735 16.8696C13.3139 16.8696 16.8747 13.31 16.8747 8.93478C16.8747 4.55956 13.314 1 8.93735 1ZM8.93735 15.5652C5.27814 15.5652 2.30121 12.5906 2.30121 8.93475C2.30121 5.27866 5.27814 2.30431 8.93735 2.30431C12.5966 2.30431 15.5735 5.27866 15.5735 8.93475C15.5735 12.5906 12.5966 15.5652 8.93735 15.5652Z" stroke="#0E3770" stroke-width="0.4"/>
<path d="M18.8083 17.8854L14.536 13.6246C14.2812 13.3707 13.8694 13.3717 13.6159 13.627C13.3626 13.8824 13.3636 14.2952 13.6182 14.5494L17.8905 18.8102C18.0176 18.9367 18.1833 19 18.3494 19C18.5166 19 18.6836 18.9359 18.8107 18.8078C19.064 18.5524 19.0629 18.1396 18.8083 17.8854Z" stroke="#0E3770" stroke-width="0.4"/>
</svg>
