<svg width="20" height="20" viewBox="0 0 20 20" fill="none" xmlns="http://www.w3.org/2000/svg">
<path d="M9.96484 8.10194C10.3532 8.10194 10.668 8.41672 10.668 8.8051C10.668 9.19349 10.3532 9.50827 9.96484 9.50827C9.57648 9.50827 9.26172 9.19349 9.26172 8.8051C9.26172 8.41672 9.57648 8.10194 9.96484 8.10194ZM12.4258 8.8051C12.4258 9.19349 12.7405 9.50827 13.1289 9.50827C13.5173 9.50827 13.832 9.19349 13.832 8.8051C13.832 8.41672 13.5173 8.10194 13.1289 8.10194C12.7405 8.10194 12.4258 8.41672 12.4258 8.8051ZM6.09766 8.8051C6.09766 9.19349 6.41241 9.50827 6.80078 9.50827C7.18915 9.50827 7.50391 9.19349 7.50391 8.8051C7.50391 8.41672 7.18915 8.10194 6.80078 8.10194C6.41241 8.10194 6.09766 8.41672 6.09766 8.8051ZM18.3817 15.3995C19.2046 16.2224 19.2046 17.5606 18.3822 18.3831C17.971 18.7943 17.4307 19 16.8906 19C16.3505 19 15.8103 18.7943 15.3991 18.3831L11.5393 14.5318C11.4573 14.4499 11.3969 14.3492 11.3633 14.2383L10.5225 11.4705C10.448 11.2251 10.5129 10.9587 10.692 10.7751C10.8711 10.5916 11.1358 10.5202 11.383 10.5886L14.2209 11.3747C14.3378 11.4071 14.4442 11.469 14.5301 11.5547L18.3817 15.3995ZM12.6575 13.6608L15.2622 16.2599L16.2567 15.2653L13.6674 12.6807L12.2397 12.2852L12.6575 13.6608ZM17.3878 16.3943L17.2521 16.2588L16.2577 17.2532L16.3929 17.3881C16.6676 17.6629 17.1136 17.6629 17.3878 17.3886C17.662 17.1145 17.662 16.6684 17.3878 16.3943ZM10.3911 15.5714C10.2612 15.577 10.1296 15.5799 10 15.5799C8.86937 15.5799 7.7809 15.3694 6.76494 14.9542C6.5919 14.8836 6.39772 14.8847 6.22551 14.9574L3.02396 16.3089L4.10268 13.7535C4.20815 13.5037 4.16049 13.2153 3.98004 13.0125C2.95049 11.8559 2.40625 10.472 2.40625 9.0107C2.40625 5.36908 5.81284 2.40633 10 2.40633C14.1872 2.40633 17.5938 5.36908 17.5938 9.0107C17.5938 9.87427 17.3817 10.7413 16.9634 11.5874C16.7913 11.9356 16.934 12.3573 17.2822 12.5294C17.6303 12.7015 18.052 12.5588 18.2241 12.2106C18.7389 11.1689 19 10.0924 19 9.0107C19 4.59355 14.9627 1 10 1C5.03748 1 1 4.59355 1 9.0107C1 10.678 1.56525 12.2569 2.63957 13.6035L1.05534 17.3564C0.944107 17.6199 1.00371 17.9247 1.20599 18.127C1.34058 18.2615 1.52034 18.333 1.70326 18.333C1.79541 18.333 1.88838 18.3148 1.97655 18.2776L6.50923 16.3641C7.61473 16.7771 8.78766 16.9862 10 16.9862C10.15 16.9862 10.3023 16.9828 10.4526 16.9763C10.8406 16.9593 11.1413 16.6311 11.1243 16.2431C11.1074 15.8551 10.7785 15.5534 10.3911 15.5714Z" fill="white" stroke="white" stroke-width="0.1"/>
</svg>
