<svg width="175" height="50" viewBox="0 0 175 50" fill="none" xmlns="http://www.w3.org/2000/svg">
<path fill-rule="evenodd" clip-rule="evenodd" d="M25.0883 0C29.661 0 33.9866 1.2285 37.6942 3.31695L43.2556 1.59705L41.0311 5.52826L31.1441 22.6044H21.9986L25.8298 16.0934H17.3023L18.9089 18.9189L6.05579 41.0319C2.22458 36.7322 0 31.0811 0 24.9386C0 11.1794 11.2465 0 25.0883 0ZM11.7408 27.2727L14.3362 22.7273H7.41525L11.1229 20.7617L15.4484 13.3907H28.5487L30.1554 16.2162L34.3573 8.84521H12.8531L4.81992 22.7273L7.41525 27.2727H11.7408Z" fill="#DE2A2D"/>
<path fill-rule="evenodd" clip-rule="evenodd" d="M25.0883 50C20.5155 50 16.19 48.7715 12.4823 46.6831L6.9209 48.403L9.14547 44.4717L19.0325 27.3956H28.178L24.3467 33.9066H32.8743L31.2676 31.0811L44.1208 8.96806C47.8284 13.2678 50.053 18.9189 50.053 25.0614C50.3001 38.8206 39.0537 50 25.0883 50ZM38.5593 22.7273L35.8404 27.2727H42.7613L39.0537 29.2383L34.7281 36.6093H21.6278L20.0212 33.7838L15.8192 41.1548H37.447L45.4802 27.2727L42.8849 22.7273H38.5593Z" fill="#0E3770"/>
<path fill-rule="evenodd" clip-rule="evenodd" d="M73.5346 26.7813V32.6781H63.0297V26.7813H57.5918V41.0319H63.0297V35.8722H73.5346V41.0319H78.9724V26.7813H73.5346ZM105.667 41.0319H123.34C124.329 41.0319 125.194 40.6634 125.936 39.9263C126.677 39.1892 127.048 38.3292 127.048 37.2236V35.6265C127.048 34.7666 126.801 34.1523 126.183 33.5381C126.677 33.0467 127.048 32.3096 127.048 31.4496V30.4668C127.048 29.484 126.677 28.5012 125.936 27.7641C125.194 27.027 124.329 26.6585 123.34 26.6585H105.667C105.667 31.5725 105.667 36.3636 105.667 41.0319ZM121.61 37.5921H111.105V35.258H121.61V37.5921ZM111.105 32.3096V30.2211H121.61V32.3096H111.105ZM97.5106 26.7813H102.948V37.3464C102.948 38.3292 102.578 39.312 101.836 40.0491C101.095 40.7862 100.229 41.1548 99.1172 41.1548H90.3425H85.5226C83.298 41.1548 81.6914 39.4349 81.6914 37.3464V26.9042H87.1292V37.5921H97.6342V26.7813H97.5106Z" fill="#0E3770"/>
<path fill-rule="evenodd" clip-rule="evenodd" d="M175 8.72236C175 10.8108 172.652 12.285 170.798 12.285H166.596V22.973H160.664V12.285H156.462C154.361 12.285 152.26 10.688 152.26 8.72236C159.057 8.72236 167.956 8.72236 175 8.72236ZM73.5346 17.4447H61.7938C59.6928 17.4447 57.7154 15.7248 57.7154 13.6364V12.5307C57.7154 10.3194 59.5692 8.84521 61.7938 8.84521H79.096C79.096 10.8108 76.7479 12.285 74.8941 12.285H63.2768V14.3735H74.8941C76.8715 14.3735 79.096 15.602 79.096 17.8133V19.2875C79.096 21.4988 77.1186 23.0958 75.0177 23.0958H57.7154C57.7154 21.2531 59.8164 19.9017 61.6702 19.656H73.5346V17.4447ZM87.1292 12.1622C87.1292 15.7248 87.1292 19.4103 87.1292 22.973H81.6914C81.6914 18.1818 81.6914 13.3907 81.6914 8.72236H98.9936C101.095 8.72236 103.196 10.1966 103.196 12.4079V14.1278C103.196 16.3391 101.095 17.8133 98.9936 17.8133H88.6123C88.7359 15.9705 90.8369 14.6192 92.6907 14.4963C93.9265 14.4963 96.6455 14.4963 97.7578 14.4963V12.1622H87.1292ZM123.093 8.72236H109.499C107.398 8.72236 105.667 10.3194 105.667 12.5307V19.2875C105.667 21.3759 107.398 23.0958 109.499 23.0958H123.093C125.194 23.0958 126.924 21.4988 126.924 19.2875V12.5307C126.924 10.3194 125.194 8.72236 123.093 8.72236ZM121.61 19.4103H111.105V12.285H121.61V19.4103ZM135.081 12.1622H145.586V14.4963H137.429L143.856 22.973H149.788L145.339 17.6904H147.069C149.047 17.6904 151.024 15.9705 151.024 14.1278V12.4079C151.024 10.3194 149.294 8.59951 147.193 8.59951H129.767V22.8501H135.205V12.1622H135.081Z" fill="#DE2A2D"/>
</svg>
