<svg width="14" height="11" viewBox="0 0 14 11" fill="none" xmlns="http://www.w3.org/2000/svg">
<path d="M14 1.33974C13.5 1.55128 12.9286 1.69231 12.3572 1.76282C12.9286 1.41026 13.4286 0.846156 13.6429 0.211541C13.0714 0.564104 12.5 0.775643 11.7857 0.916668C11.2857 0.352566 10.5 0 9.71428 0C8.14285 0 6.85714 1.26923 6.85714 2.82051C6.85714 3.03205 6.85714 3.24358 6.92857 3.45512C4.57143 3.3141 2.42857 2.18589 0.999996 0.493587C0.78571 0.916664 0.642853 1.41025 0.642853 1.90384C0.642853 2.89102 1.14286 3.73718 1.92857 4.23077C1.42857 4.23077 0.999996 4.08974 0.642853 3.8782C0.642853 5.21795 1.64285 6.41666 2.92857 6.6282C2.71428 6.69871 2.42857 6.69872 2.14286 6.69872C1.92857 6.69872 1.78571 6.69871 1.57143 6.6282C1.92857 7.7564 3 8.60256 4.28572 8.60256C3.28572 9.3782 2.07143 9.80127 0.714286 9.80127C0.5 9.80127 0.285714 9.80128 0 9.73077C1.28571 10.5064 2.78571 11 4.42857 11C9.71429 11 12.5714 6.69871 12.5714 2.96154V2.60897C13.1429 2.39743 13.6429 1.90384 14 1.33974Z" fill="#55ACE3"/>
</svg>
