<svg width="14" height="14" viewBox="0 0 14 14" fill="none" xmlns="http://www.w3.org/2000/svg">
<path d="M7 3.30769C5.42973 3.30769 4.0956 4.26075 3.55953 5.61635C3.2915 5.24353 2.86433 4.97692 2.30943 4.97692C1.75483 4.97692 1.26903 5.27153 1 5.71278V1.99231C1 1.41382 1.41382 1 1.99231 1H9.25928C8.79193 1.27836 8.47693 1.789 8.47693 2.36923V3.60762C8.02516 3.41456 7.52582 3.30769 7 3.30769ZM12.3946 5.18766C12.6527 5.03195 12.8638 4.80516 13 4.53497V5.74059C12.8539 5.50463 12.6441 5.31231 12.3946 5.18766ZM10.3538 5.41539H10.7151C10.6224 5.49969 10.541 5.59462 10.4712 5.69685C10.4359 5.60105 10.3968 5.50717 10.3538 5.41539Z" stroke="url(#paint0_linear)" stroke-width="2"/>
<defs>
<linearGradient id="paint0_linear" x1="12.6" y1="2.1" x2="2.8" y2="12.3667" gradientUnits="userSpaceOnUse">
<stop stop-color="#EEA054"/>
<stop offset="0.505208" stop-color="#D64763"/>
<stop offset="1" stop-color="#B62A99"/>
</linearGradient>
</defs>
</svg>
