<svg width="20" height="20" viewBox="0 0 20 20" fill="none" xmlns="http://www.w3.org/2000/svg">
<path d="M10 19C5.0372 19 1 14.9628 1 10C1 5.0372 5.0372 1 10 1C14.9628 1 19 5.0372 19 10C19 14.9628 14.9628 19 10 19ZM10 2.125C5.65752 2.125 2.125 5.65752 2.125 10C2.125 14.3425 5.65752 17.875 10 17.875C14.3425 17.875 17.875 14.3425 17.875 10C17.875 5.65752 14.3425 2.125 10 2.125Z"  />
<path d="M13.1875 7.37495H6.81245C6.50195 7.37495 6.24995 7.12296 6.24995 6.81245C6.24995 6.50195 6.50195 6.24995 6.81245 6.24995H13.1875C13.498 6.24995 13.75 6.50195 13.75 6.81245C13.75 7.12296 13.498 7.37495 13.1875 7.37495Z"  />
<path d="M13.1875 10.5625H6.81245C6.50195 10.5625 6.24995 10.3105 6.24995 10C6.24995 9.6895 6.50195 9.4375 6.81245 9.4375H13.1875C13.498 9.4375 13.75 9.6895 13.75 10C13.75 10.3105 13.498 10.5625 13.1875 10.5625Z"  />
<path d="M13.1875 13.75H6.81245C6.50195 13.75 6.24995 13.498 6.24995 13.1875C6.24995 12.877 6.50195 12.625 6.81245 12.625H13.1875C13.498 12.625 13.75 12.877 13.75 13.1875C13.75 13.498 13.498 13.75 13.1875 13.75Z"  />
<path d="M10 19C5.0372 19 1 14.9628 1 10C1 5.0372 5.0372 1 10 1C14.9628 1 19 5.0372 19 10C19 14.9628 14.9628 19 10 19ZM10 2.125C5.65752 2.125 2.125 5.65752 2.125 10C2.125 14.3425 5.65752 17.875 10 17.875C14.3425 17.875 17.875 14.3425 17.875 10C17.875 5.65752 14.3425 2.125 10 2.125Z"   stroke-width="0.5"/>
<path d="M13.1875 7.37495H6.81245C6.50195 7.37495 6.24995 7.12296 6.24995 6.81245C6.24995 6.50195 6.50195 6.24995 6.81245 6.24995H13.1875C13.498 6.24995 13.75 6.50195 13.75 6.81245C13.75 7.12296 13.498 7.37495 13.1875 7.37495Z"   stroke-width="0.5"/>
<path d="M13.1875 10.5625H6.81245C6.50195 10.5625 6.24995 10.3105 6.24995 10C6.24995 9.6895 6.50195 9.4375 6.81245 9.4375H13.1875C13.498 9.4375 13.75 9.6895 13.75 10C13.75 10.3105 13.498 10.5625 13.1875 10.5625Z"   stroke-width="0.5"/>
<path d="M13.1875 13.75H6.81245C6.50195 13.75 6.24995 13.498 6.24995 13.1875C6.24995 12.877 6.50195 12.625 6.81245 12.625H13.1875C13.498 12.625 13.75 12.877 13.75 13.1875C13.75 13.498 13.498 13.75 13.1875 13.75Z"   stroke-width="0.5"/>
</svg>
