<svg width="20" height="16" viewBox="0 0 20 16" fill="none" xmlns="http://www.w3.org/2000/svg">
<path d="M16.2269 2.24224C14.5548 1.44119 12.3434 1 10 1C7.65659 1 5.44516 1.44119 3.77309 2.24224C1.98483 3.09898 1 4.27883 1 5.56446V10.4355C1 11.7212 1.98483 12.901 3.77309 13.7578C5.44516 14.5588 7.65659 15 10 15C12.3434 15 14.5548 14.5588 16.2269 13.7578C18.0152 12.901 19 11.7212 19 10.4355V5.56446C19 4.27883 18.0152 3.09898 16.2269 2.24224ZM17.9453 10.4355C17.9453 11.3056 17.1471 12.187 15.7552 12.8539C14.2268 13.5861 12.1829 13.9894 10 13.9894C7.81715 13.9894 5.77323 13.5861 4.24475 12.8539C2.85295 12.187 2.05469 11.3056 2.05469 10.4355V7.7457C2.49748 8.16675 3.07348 8.55154 3.77309 8.88672C5.44516 9.68777 7.65659 10.1289 10 10.1289C12.3434 10.1289 14.5548 9.68774 16.2269 8.88672C16.9265 8.55154 17.5025 8.16675 17.9453 7.74567V10.4355ZM15.7553 7.98282C14.2268 8.71509 12.1829 9.11834 10 9.11834C7.81715 9.11834 5.7732 8.71505 4.24475 7.98282C2.85295 7.316 2.05469 6.43454 2.05469 5.56446C2.05469 4.69439 2.85295 3.81296 4.24475 3.14614C5.77323 2.41387 7.81715 2.01058 10 2.01058C12.1829 2.01058 14.2268 2.41387 15.7552 3.14614C17.1471 3.81296 17.9453 4.69439 17.9453 5.56446C17.9453 6.43454 17.1471 7.316 15.7553 7.98282Z"  stroke-width="0.6" />
</svg>
