<svg width="20" height="20" viewBox="0 0 20 20" xmlns="http://www.w3.org/2000/svg">
<path d="M16.3636 3.63644C14.6642 1.936 12.4036 1 10 1C7.59644 1 5.33575 1.936 3.63644 3.63644C1.93656 5.33575 1 7.59644 1 10C1 12.4036 1.93656 14.6642 3.63644 16.3636C5.33575 18.064 7.59644 19 10 19C12.4036 19 14.6642 18.064 16.3636 16.3636C18.0634 14.6642 19 12.4036 19 10C19 7.59644 18.0634 5.33575 16.3636 3.63644ZM4.43181 4.43181C5.67606 3.18756 7.26512 2.41919 8.98187 2.19813C8.94981 2.97944 9.06119 4.28837 10 5.22719C10.6733 5.9005 11.4316 6.22506 12.1651 6.5395C12.8299 6.82469 13.4577 7.09356 13.978 7.61331C14.9399 8.57575 15.3528 11.0114 13.1821 13.1821C11.0114 15.3527 8.57631 14.9393 7.61387 13.9774C7.09356 13.4571 6.82469 12.8294 6.5395 12.1645C6.22506 11.431 5.9005 10.6727 5.22719 9.99944C4.28837 9.06006 2.97944 8.94869 2.19812 8.98075C2.41862 7.26456 3.18756 5.6755 4.43181 4.43181ZM15.5682 15.5682C14.0809 17.056 12.1032 17.875 10 17.875C7.89681 17.875 5.91906 17.056 4.43181 15.5682C2.971 14.1074 2.15931 12.1729 2.13063 10.1119C2.68806 10.0748 3.74612 10.1102 4.43181 10.7954C4.95156 11.3157 5.22044 11.9429 5.50562 12.6077C5.82006 13.3418 6.14519 14.1001 6.8185 14.7734C7.51881 15.4737 8.56394 15.8815 9.72606 15.8815C11.1031 15.8815 12.6454 15.31 13.9774 13.978C16.4339 11.5216 16.3028 8.3485 14.7734 6.81794C14.1001 6.14463 13.3418 5.82006 12.6083 5.50563C11.9434 5.22044 11.3157 4.95156 10.7954 4.43181C10.1103 3.74612 10.0748 2.68862 10.1119 2.13063C12.1729 2.15931 14.1074 2.971 15.5682 4.43181C17.0554 5.91906 17.875 7.89681 17.875 10C17.875 12.1032 17.0554 14.0809 15.5682 15.5682Z"   stroke-width="0.5"/>
</svg>
