<svg width="20" height="20" viewBox="0 0 20 20" fill="none" xmlns="http://www.w3.org/2000/svg">
<path d="M10 19C13.7211 19 16.9212 16.7452 18.2907 13.5106C18.2913 13.5091 18.292 13.5075 18.2926 13.506C18.762 12.3962 19 11.2167 19 10C19 5.02437 14.9732 1 10 1C5.02198 1 1 5.02486 1 10C1 14.9437 4.99565 19 10 19ZM13.7693 17.3941C15.1246 14.3744 13.5757 10.7255 10.2926 9.71914C10.0181 8.51215 10.1988 7.28348 10.8073 6.21529C14.3452 7.07982 16.924 9.89713 17.6017 13.3311C16.8137 15.1288 15.4308 16.5467 13.7693 17.3941ZM18.2969 10C18.2969 10.7284 18.2039 11.442 18.0207 12.1329C17.0242 8.9708 14.5051 6.48895 11.2235 5.59647C12.23 4.3158 13.7933 3.61221 15.4283 3.72401C17.2545 5.30144 18.2969 7.57988 18.2969 10ZM14.5182 3.03836C12.8239 3.21108 11.2836 4.14634 10.3411 5.6267C9.52711 6.90653 9.27065 8.41168 9.6098 9.88715C8.70136 10.7288 7.54676 11.1868 6.31773 11.1932L6.2643 11.0002C5.87185 9.5358 5.84745 7.99086 6.19367 6.53243C6.62011 4.73451 7.6072 3.04335 9.08031 1.75431C9.38448 1.72095 9.69319 1.70312 10 1.70312C11.6696 1.70312 13.2231 2.1957 14.5182 3.03836ZM7.83406 1.98986C6.69661 3.23052 5.89206 4.75729 5.50953 6.37012C5.13986 7.92729 5.1624 9.57538 5.57474 11.1421C3.96251 10.9112 2.57106 9.90888 1.85022 8.43671C2.44415 5.32042 4.8192 2.81023 7.83406 1.98986ZM1.71448 9.57194C2.76773 11.0283 4.45793 11.8965 6.29182 11.8965C7.71386 11.8965 9.04941 11.3693 10.0968 10.3945C11.2806 10.7603 12.2545 11.5316 12.8749 12.594C12.7841 12.6695 11.6866 13.9293 9.74747 14.7295C9.56804 14.8035 9.48257 15.0091 9.55661 15.1886C9.63089 15.3685 9.83659 15.4533 10.0157 15.3795C11.1926 14.8937 12.293 14.1616 13.2011 13.2614C13.8073 14.7734 13.6346 16.4806 12.7195 17.841C11.8477 18.1433 10.9335 18.2969 10 18.2969C7.76719 18.2969 5.68784 17.4278 4.14205 15.8799C4.84342 16.0357 5.56121 16.114 6.28117 16.114C6.52902 16.114 6.78007 16.1046 7.02736 16.086C7.22097 16.0714 7.36613 15.9027 7.35157 15.7091C7.33702 15.5155 7.16827 15.3697 6.97466 15.3848C6.74485 15.4021 6.51152 15.4109 6.28117 15.4109C5.27004 15.4109 4.27814 15.2464 3.31701 14.9189C2.28419 13.5184 1.70312 11.8188 1.70312 10C1.70312 9.85734 1.7072 9.71457 1.71448 9.57194Z" />
<path d="M8.3125 15.2031C8.50666 15.2031 8.66406 15.0457 8.66406 14.8515C8.66406 14.6574 8.50666 14.5 8.3125 14.5C8.11834 14.5 7.96094 14.6574 7.96094 14.8515C7.96094 15.0457 8.11834 15.2031 8.3125 15.2031Z"  />
<path d="M10 19C13.7211 19 16.9212 16.7452 18.2907 13.5106C18.2913 13.5091 18.292 13.5075 18.2926 13.506C18.762 12.3962 19 11.2167 19 10C19 5.02437 14.9732 1 10 1C5.02198 1 1 5.02486 1 10C1 14.9437 4.99565 19 10 19ZM13.7693 17.3941C15.1246 14.3744 13.5757 10.7255 10.2926 9.71914C10.0181 8.51215 10.1988 7.28348 10.8073 6.21529C14.3452 7.07982 16.924 9.89713 17.6017 13.3311C16.8137 15.1288 15.4308 16.5467 13.7693 17.3941ZM18.2969 10C18.2969 10.7284 18.2039 11.442 18.0207 12.1329C17.0242 8.9708 14.5051 6.48895 11.2235 5.59647C12.23 4.3158 13.7933 3.61221 15.4283 3.72401C17.2545 5.30144 18.2969 7.57988 18.2969 10ZM14.5182 3.03836C12.8239 3.21108 11.2836 4.14634 10.3411 5.6267C9.52711 6.90653 9.27065 8.41168 9.6098 9.88715C8.70136 10.7288 7.54676 11.1868 6.31773 11.1932L6.2643 11.0002C5.87185 9.5358 5.84745 7.99086 6.19367 6.53243C6.62011 4.73451 7.6072 3.04335 9.08031 1.75431C9.38448 1.72095 9.69319 1.70312 10 1.70312C11.6696 1.70312 13.2231 2.1957 14.5182 3.03836ZM7.83406 1.98986C6.69661 3.23052 5.89206 4.75729 5.50953 6.37012C5.13986 7.92729 5.1624 9.57538 5.57474 11.1421C3.96251 10.9112 2.57106 9.90888 1.85022 8.43671C2.44415 5.32042 4.8192 2.81023 7.83406 1.98986ZM1.71448 9.57194C2.76773 11.0283 4.45793 11.8965 6.29182 11.8965C7.71386 11.8965 9.04941 11.3693 10.0968 10.3945C11.2806 10.7603 12.2545 11.5316 12.8749 12.594C12.7841 12.6695 11.6866 13.9293 9.74747 14.7295C9.56804 14.8035 9.48257 15.0091 9.55661 15.1886C9.63089 15.3685 9.83659 15.4533 10.0157 15.3795C11.1926 14.8937 12.293 14.1616 13.2011 13.2614C13.8073 14.7734 13.6346 16.4806 12.7195 17.841C11.8477 18.1433 10.9335 18.2969 10 18.2969C7.76719 18.2969 5.68784 17.4278 4.14205 15.8799C4.84342 16.0357 5.56121 16.114 6.28117 16.114C6.52902 16.114 6.78007 16.1046 7.02736 16.086C7.22097 16.0714 7.36613 15.9027 7.35157 15.7091C7.33702 15.5155 7.16827 15.3697 6.97466 15.3848C6.74485 15.4021 6.51152 15.4109 6.28117 15.4109C5.27004 15.4109 4.27814 15.2464 3.31701 14.9189C2.28419 13.5184 1.70312 11.8188 1.70312 10C1.70312 9.85734 1.7072 9.71457 1.71448 9.57194Z"   stroke-width="0.8"/>
<path d="M8.3125 15.2031C8.50666 15.2031 8.66406 15.0457 8.66406 14.8515C8.66406 14.6574 8.50666 14.5 8.3125 14.5C8.11834 14.5 7.96094 14.6574 7.96094 14.8515C7.96094 15.0457 8.11834 15.2031 8.3125 15.2031Z"   stroke-width="0.8"/>
</svg>
