<?xml version="1.0" encoding="utf-8"?><svg viewBox="0 0 20 16" xmlns="http://www.w3.org/2000/svg" xmlns:xlink="http://www.w3.org/1999/xlink"><style>:root>svg{display:none}:root>svg:target{display:block}</style><svg fill="none" viewBox="0 0 6 12" id="news--article-switcher-arrow-rb" xmlns="http://www.w3.org/2000/svg"><path d="M4.954 5.856L1.287 1.064c-.047-.061-.12-.08-.182-.049-.064.032-.105.108-.105.193v.834c0 .053.016.104.046.143L3.937 6 1.046 9.815A.239.239 0 0 0 1 9.958v.834c0 .085.041.161.105.193.02.01.04.015.062.015a.153.153 0 0 0 .12-.064l3.667-4.792a.248.248 0 0 0 0-.288z" fill="#0E3770" stroke="#0E3770" stroke-width=".5"/></svg><svg fill="none" viewBox="0 0 16 16" id="news--comment" xmlns="http://www.w3.org/2000/svg"><path d="M5.813 8.438h4.375a.438.438 0 0 1 0 .874H5.811a.438.438 0 0 1 0-.874zm-.875-2.626h6.125a.438.438 0 0 1 0 .875H4.936a.438.438 0 0 1 0-.875zM8 1c3.866 0 7 2.742 7 6.125 0 1.933-1.026 3.654-2.625 4.777V15l-3.066-1.86A8.03 8.03 0 0 1 8 13.25c-3.866 0-7-2.742-7-6.125S4.134 1 8 1zm0 11.375c.511 0 1.005-.06 1.479-.16l2.06 1.238-.028-2.03c1.579-.95 2.614-2.52 2.614-4.298 0-2.9-2.742-5.25-6.125-5.25s-6.125 2.35-6.125 5.25 2.742 5.25 6.125 5.25z" fill="#0E3770" stroke="#0E3770" stroke-width=".7"/></svg><svg fill="none" viewBox="0 0 20 13" id="news--views" xmlns="http://www.w3.org/2000/svg"><path d="M18.933 6.277C18.792 6.06 15.385 1 10 1 5.38 1 1.262 6.032 1.088 6.246a.409.409 0 0 0 0 .508C1.262 6.968 5.38 12 10 12c4.62 0 8.738-5.032 8.912-5.246a.408.408 0 0 0 .021-.477zM10 11.214c-3.704 0-7.226-3.7-8.121-4.714C2.772 5.486 6.29 1.786 10 1.786c4.334 0 7.394 3.695 8.14 4.693-.862.981-4.404 4.735-8.14 4.735z" fill="#0E3770"/><path d="M10 3.357c-1.655 0-3 1.41-3 3.143 0 1.733 1.345 3.143 3 3.143s3-1.41 3-3.143c0-1.733-1.345-3.143-3-3.143zm0 5.5C8.76 8.857 7.75 7.8 7.75 6.5c0-1.3 1.01-2.357 2.25-2.357S12.25 5.2 12.25 6.5c0 1.3-1.01 2.357-2.25 2.357z" fill="#0E3770"/><path d="M18.933 6.277C18.792 6.06 15.385 1 10 1 5.38 1 1.262 6.032 1.088 6.246a.409.409 0 0 0 0 .508C1.262 6.968 5.38 12 10 12c4.62 0 8.738-5.032 8.912-5.246a.408.408 0 0 0 .021-.477zM10 11.214c-3.704 0-7.226-3.7-8.121-4.714C2.772 5.486 6.29 1.786 10 1.786c4.334 0 7.394 3.695 8.14 4.693-.862.981-4.404 4.735-8.14 4.735z" stroke="#0E3770" stroke-width=".7"/><path d="M10 3.357c-1.655 0-3 1.41-3 3.143 0 1.733 1.345 3.143 3 3.143s3-1.41 3-3.143c0-1.733-1.345-3.143-3-3.143zm0 5.5C8.76 8.857 7.75 7.8 7.75 6.5c0-1.3 1.01-2.357 2.25-2.357S12.25 5.2 12.25 6.5c0 1.3-1.01 2.357-2.25 2.357z" stroke="#0E3770" stroke-width=".7"/></svg></svg>