<?xml version="1.0" encoding="utf-8"?><svg viewBox="0 0 26 22" xmlns="http://www.w3.org/2000/svg" xmlns:xlink="http://www.w3.org/1999/xlink"><style>:root>svg{display:none}:root>svg:target{display:block}</style><svg fill="none" viewBox="0 0 20 20" id="answer" xmlns="http://www.w3.org/2000/svg"><path d="M9.965 8.102a.703.703 0 1 1 0 1.406.703.703 0 0 1 0-1.406zm2.46.703a.703.703 0 1 0 1.407 0 .703.703 0 0 0-1.406 0zm-6.327 0a.703.703 0 1 0 1.406 0 .703.703 0 0 0-1.406 0zM18.382 15.4a2.112 2.112 0 0 1 0 2.983 2.103 2.103 0 0 1-1.491.617c-.54 0-1.08-.206-1.492-.617l-3.86-3.851a.702.702 0 0 1-.176-.294l-.84-2.768a.703.703 0 0 1 .86-.881l2.838.786a.704.704 0 0 1 .31.18l3.85 3.845zm-5.725-1.74l2.605 2.6.995-.995-2.59-2.584-1.427-.396.418 1.376zm4.73 2.734l-.135-.135-.994.994.135.135a.704.704 0 0 0 .995-.994zm-6.996-.823a8.508 8.508 0 0 1-3.626-.617.704.704 0 0 0-.54.003L3.025 16.31l1.079-2.556a.703.703 0 0 0-.123-.74c-1.03-1.157-1.574-2.541-1.574-4.002 0-3.642 3.407-6.605 7.594-6.605s7.594 2.963 7.594 6.605c0 .863-.212 1.73-.63 2.576a.703.703 0 1 0 1.26.624c.515-1.042.776-2.119.776-3.2C19 4.594 14.963 1 10 1S1 4.594 1 9.01c0 1.668.565 3.247 1.64 4.594l-1.585 3.752a.703.703 0 0 0 .922.922l4.532-1.914a9.932 9.932 0 0 0 3.944.612.703.703 0 1 0-.062-1.405z" fill="#0E3770" stroke="#0E3770" stroke-width=".1"/></svg><svg fill="none" viewBox="0 0 26 22" id="dislike" xmlns="http://www.w3.org/2000/svg"><path d="M24.5 9.901l-.5.75V12c0 1.103-.897 2-2 2h-4.382a.492.492 0 0 0-.425.237.49.49 0 0 0-.022.487l1.605 3.21A2.12 2.12 0 0 1 16.881 21H16.5a.501.501 0 0 1-.366-.158l-5.386-5.77A6.481 6.481 0 0 1 9 10.634V6c0-2.757 2.243-5 5-5h5.43c.837 0 1.615.416 2.08 1.113L24.5 6.6c.327.49.5 1.06.5 1.651 0 .59-.173 1.162-.5 1.651zm-.832-2.748l-2.99-4.485A1.497 1.497 0 0 0 19.43 2H14c-2.206 0-4 1.794-4 4v4.635c0 1.398.525 2.73 1.48 3.753L16.716 20h.165a1.12 1.12 0 0 0 1-1.618l-1.606-3.211a1.491 1.491 0 0 1 .066-1.46A1.491 1.491 0 0 1 17.618 13H22c.551 0 1-.449 1-1v-1.5a.5.5 0 0 1 .084-.277l.584-.876A1.97 1.97 0 0 0 24 8.25c0-.392-.115-.771-.332-1.097zM6 14H3c-1.103 0-2-.897-2-2V3c0-1.103.897-2 2-2h3c1.103 0 2 .897 2 2v9c0 1.103-.897 2-2 2zM7 3c0-.551-.449-1-1-1H3c-.551 0-1 .449-1 1v9c0 .551.449 1 1 1h3c.551 0 1-.449 1-1V3z" fill="#DE2A2D"/><path d="M24.5 9.901l-.5.75V12c0 1.103-.897 2-2 2h-4.382a.492.492 0 0 0-.425.237.49.49 0 0 0-.022.487l1.605 3.21A2.12 2.12 0 0 1 16.881 21H16.5a.501.501 0 0 1-.366-.158l-5.386-5.77A6.481 6.481 0 0 1 9 10.634V6c0-2.757 2.243-5 5-5h5.43c.837 0 1.615.416 2.08 1.113L24.5 6.6c.327.49.5 1.06.5 1.651 0 .59-.173 1.162-.5 1.651zm-.832-2.748l-2.99-4.485A1.497 1.497 0 0 0 19.43 2H14c-2.206 0-4 1.794-4 4v4.635c0 1.398.525 2.73 1.48 3.753L16.716 20h.165a1.12 1.12 0 0 0 1-1.618l-1.606-3.211a1.491 1.491 0 0 1 .066-1.46A1.491 1.491 0 0 1 17.618 13H22c.551 0 1-.449 1-1v-1.5a.5.5 0 0 1 .084-.277l.584-.876A1.97 1.97 0 0 0 24 8.25c0-.392-.115-.771-.332-1.097zM6 14H3c-1.103 0-2-.897-2-2V3c0-1.103.897-2 2-2h3c1.103 0 2 .897 2 2v9c0 1.103-.897 2-2 2zM7 3c0-.551-.449-1-1-1H3c-.551 0-1 .449-1 1v9c0 .551.449 1 1 1h3c.551 0 1-.449 1-1V3z" stroke="#DE2A2D" stroke-width=".7"/></svg><svg fill="none" viewBox="0 0 26 22" id="like" xmlns="http://www.w3.org/2000/svg"><path d="M24.5 12.099l-.5-.75V10c0-1.103-.897-2-2-2h-4.382a.492.492 0 0 1-.425-.237.49.49 0 0 1-.022-.487l1.605-3.21A2.12 2.12 0 0 0 16.881 1H16.5a.501.501 0 0 0-.366.158l-5.386 5.77A6.481 6.481 0 0 0 9 11.366V16c0 2.757 2.243 5 5 5h5.43c.837 0 1.615-.416 2.08-1.113L24.5 15.4c.327-.49.5-1.06.5-1.651 0-.59-.173-1.162-.5-1.651zm-.832 2.748l-2.99 4.485A1.497 1.497 0 0 1 19.43 20H14c-2.206 0-4-1.794-4-4v-4.635c0-1.398.525-2.73 1.48-3.753L16.716 2h.165a1.12 1.12 0 0 1 1 1.618L16.276 6.83a1.491 1.491 0 0 0 .066 1.46c.275.445.752.711 1.276.711H22c.551 0 1 .449 1 1v1.5a.5.5 0 0 0 .084.277l.584.876c.217.326.332.705.332 1.097s-.115.771-.332 1.097zM6 8H3c-1.103 0-2 .897-2 2v9c0 1.103.897 2 2 2h3c1.103 0 2-.897 2-2v-9c0-1.103-.897-2-2-2zm1 11c0 .551-.449 1-1 1H3c-.551 0-1-.449-1-1v-9c0-.551.449-1 1-1h3c.551 0 1 .449 1 1v9z" fill="#009A06"/><path d="M24.5 12.099l-.5-.75V10c0-1.103-.897-2-2-2h-4.382a.492.492 0 0 1-.425-.237.49.49 0 0 1-.022-.487l1.605-3.21A2.12 2.12 0 0 0 16.881 1H16.5a.501.501 0 0 0-.366.158l-5.386 5.77A6.481 6.481 0 0 0 9 11.366V16c0 2.757 2.243 5 5 5h5.43c.837 0 1.615-.416 2.08-1.113L24.5 15.4c.327-.49.5-1.06.5-1.651 0-.59-.173-1.162-.5-1.651zm-.832 2.748l-2.99 4.485A1.497 1.497 0 0 1 19.43 20H14c-2.206 0-4-1.794-4-4v-4.635c0-1.398.525-2.73 1.48-3.753L16.716 2h.165a1.12 1.12 0 0 1 1 1.618L16.276 6.83a1.491 1.491 0 0 0 .066 1.46c.275.445.752.711 1.276.711H22c.551 0 1 .449 1 1v1.5a.5.5 0 0 0 .084.277l.584.876c.217.326.332.705.332 1.097s-.115.771-.332 1.097zM6 8H3c-1.103 0-2 .897-2 2v9c0 1.103.897 2 2 2h3c1.103 0 2-.897 2-2v-9c0-1.103-.897-2-2-2zm1 11c0 .551-.449 1-1 1H3c-.551 0-1-.449-1-1v-9c0-.551.449-1 1-1h3c.551 0 1 .449 1 1v9z" stroke="#009A06" stroke-width=".7"/></svg><svg fill="none" viewBox="0 0 6 12" id="news--article-switcher-arrow-rb" xmlns="http://www.w3.org/2000/svg"><path d="M4.954 5.856L1.287 1.064c-.047-.061-.12-.08-.182-.049-.064.032-.105.108-.105.193v.834c0 .053.016.104.046.143L3.937 6 1.046 9.815A.239.239 0 0 0 1 9.958v.834c0 .085.041.161.105.193.02.01.04.015.062.015a.153.153 0 0 0 .12-.064l3.667-4.792a.248.248 0 0 0 0-.288z" fill="#0E3770" stroke="#0E3770" stroke-width=".5"/></svg><svg viewBox="0 0 16 16" id="news--comment" xmlns="http://www.w3.org/2000/svg"><path d="M5.813 8.438h4.375a.438.438 0 0 1 0 .874H5.811a.438.438 0 0 1 0-.874zm-.875-2.626h6.125a.438.438 0 0 1 0 .875H4.936a.438.438 0 0 1 0-.875zM8 1c3.866 0 7 2.742 7 6.125 0 1.933-1.026 3.654-2.625 4.777V15l-3.066-1.86A8.03 8.03 0 0 1 8 13.25c-3.866 0-7-2.742-7-6.125S4.134 1 8 1zm0 11.375c.511 0 1.005-.06 1.479-.16l2.06 1.238-.028-2.03c1.579-.95 2.614-2.52 2.614-4.298 0-2.9-2.742-5.25-6.125-5.25s-6.125 2.35-6.125 5.25 2.742 5.25 6.125 5.25z"/></svg><svg fill="none" viewBox="0 0 20 13" id="news--views" xmlns="http://www.w3.org/2000/svg"><path d="M18.933 6.277C18.792 6.06 15.385 1 10 1 5.38 1 1.262 6.032 1.088 6.246a.409.409 0 0 0 0 .508C1.262 6.968 5.38 12 10 12c4.62 0 8.738-5.032 8.912-5.246a.408.408 0 0 0 .021-.477zM10 11.214c-3.704 0-7.226-3.7-8.121-4.714C2.772 5.486 6.29 1.786 10 1.786c4.334 0 7.394 3.695 8.14 4.693-.862.981-4.404 4.735-8.14 4.735z" fill="#0E3770"/><path d="M10 3.357c-1.655 0-3 1.41-3 3.143 0 1.733 1.345 3.143 3 3.143s3-1.41 3-3.143c0-1.733-1.345-3.143-3-3.143zm0 5.5C8.76 8.857 7.75 7.8 7.75 6.5c0-1.3 1.01-2.357 2.25-2.357S12.25 5.2 12.25 6.5c0 1.3-1.01 2.357-2.25 2.357z" fill="#0E3770"/><path d="M18.933 6.277C18.792 6.06 15.385 1 10 1 5.38 1 1.262 6.032 1.088 6.246a.409.409 0 0 0 0 .508C1.262 6.968 5.38 12 10 12c4.62 0 8.738-5.032 8.912-5.246a.408.408 0 0 0 .021-.477zM10 11.214c-3.704 0-7.226-3.7-8.121-4.714C2.772 5.486 6.29 1.786 10 1.786c4.334 0 7.394 3.695 8.14 4.693-.862.981-4.404 4.735-8.14 4.735z" stroke="#0E3770" stroke-width=".7"/><path d="M10 3.357c-1.655 0-3 1.41-3 3.143 0 1.733 1.345 3.143 3 3.143s3-1.41 3-3.143c0-1.733-1.345-3.143-3-3.143zm0 5.5C8.76 8.857 7.75 7.8 7.75 6.5c0-1.3 1.01-2.357 2.25-2.357S12.25 5.2 12.25 6.5c0 1.3-1.01 2.357-2.25 2.357z" stroke="#0E3770" stroke-width=".7"/></svg><svg viewBox="0 0 16 16" id="no-color--comment" xmlns="http://www.w3.org/2000/svg"><path d="M5.813 8.438h4.375a.438.438 0 0 1 0 .874H5.811a.438.438 0 0 1 0-.874zm-.875-2.626h6.125a.438.438 0 0 1 0 .875H4.936a.438.438 0 0 1 0-.875zM8 1c3.866 0 7 2.742 7 6.125 0 1.933-1.026 3.654-2.625 4.777V15l-3.066-1.86A8.03 8.03 0 0 1 8 13.25c-3.866 0-7-2.742-7-6.125S4.134 1 8 1zm0 11.375c.511 0 1.005-.06 1.479-.16l2.06 1.238-.028-2.03c1.579-.95 2.614-2.52 2.614-4.298 0-2.9-2.742-5.25-6.125-5.25s-6.125 2.35-6.125 5.25 2.742 5.25 6.125 5.25z"/></svg><svg fill="none" viewBox="0 0 20 13" id="no-color--views" xmlns="http://www.w3.org/2000/svg"><path d="M18.933 6.277C18.792 6.06 15.385 1 10 1 5.38 1 1.262 6.032 1.088 6.246a.409.409 0 0 0 0 .508C1.262 6.968 5.38 12 10 12c4.62 0 8.738-5.032 8.912-5.246a.408.408 0 0 0 .021-.477zM10 11.214c-3.704 0-7.226-3.7-8.121-4.714C2.772 5.486 6.29 1.786 10 1.786c4.334 0 7.394 3.695 8.14 4.693-.862.981-4.404 4.735-8.14 4.735z"/><path d="M10 3.357c-1.655 0-3 1.41-3 3.143 0 1.733 1.345 3.143 3 3.143s3-1.41 3-3.143c0-1.733-1.345-3.143-3-3.143zm0 5.5C8.76 8.857 7.75 7.8 7.75 6.5c0-1.3 1.01-2.357 2.25-2.357S12.25 5.2 12.25 6.5c0 1.3-1.01 2.357-2.25 2.357z"/><path d="M18.933 6.277C18.792 6.06 15.385 1 10 1 5.38 1 1.262 6.032 1.088 6.246a.409.409 0 0 0 0 .508C1.262 6.968 5.38 12 10 12c4.62 0 8.738-5.032 8.912-5.246a.408.408 0 0 0 .021-.477zM10 11.214c-3.704 0-7.226-3.7-8.121-4.714C2.772 5.486 6.29 1.786 10 1.786c4.334 0 7.394 3.695 8.14 4.693-.862.981-4.404 4.735-8.14 4.735z"/><path d="M10 3.357c-1.655 0-3 1.41-3 3.143 0 1.733 1.345 3.143 3 3.143s3-1.41 3-3.143c0-1.733-1.345-3.143-3-3.143zm0 5.5C8.76 8.857 7.75 7.8 7.75 6.5c0-1.3 1.01-2.357 2.25-2.357S12.25 5.2 12.25 6.5c0 1.3-1.01 2.357-2.25 2.357z"/></svg><svg fill="none" viewBox="0 0 20 20" id="sport--all" xmlns="http://www.w3.org/2000/svg"><path d="M10 19c-4.963 0-9-4.037-9-9s4.037-9 9-9 9 4.037 9 9-4.037 9-9 9zm0-16.875c-4.342 0-7.875 3.533-7.875 7.875 0 4.342 3.533 7.875 7.875 7.875 4.342 0 7.875-3.533 7.875-7.875 0-4.342-3.533-7.875-7.875-7.875z"/><path d="M13.188 7.375H6.811a.563.563 0 0 1 0-1.125h6.375a.563.563 0 0 1 0 1.125zM13.188 10.563H6.811a.563.563 0 0 1 0-1.126h6.375a.563.563 0 0 1 0 1.126zM13.188 13.75H6.811a.563.563 0 0 1 0-1.125h6.375a.563.563 0 0 1 0 1.125z"/><path d="M10 19c-4.963 0-9-4.037-9-9s4.037-9 9-9 9 4.037 9 9-4.037 9-9 9zm0-16.875c-4.342 0-7.875 3.533-7.875 7.875 0 4.342 3.533 7.875 7.875 7.875 4.342 0 7.875-3.533 7.875-7.875 0-4.342-3.533-7.875-7.875-7.875z"/><path d="M13.188 7.375H6.811a.563.563 0 0 1 0-1.125h6.375a.563.563 0 0 1 0 1.125zM13.188 10.563H6.811a.563.563 0 0 1 0-1.126h6.375a.563.563 0 0 1 0 1.126zM13.188 13.75H6.811a.563.563 0 0 1 0-1.125h6.375a.563.563 0 0 1 0 1.125z"/></svg><svg fill="none" viewBox="0 0 20 20" id="sport--bb" xmlns="http://www.w3.org/2000/svg"><path d="M10 1a9 9 0 1 0 9 9 9.01 9.01 0 0 0-9-9zm8.468 9c0 .325-.02.65-.057.973-2.009-1.987-4.097-3.426-6.246-4.3.04-.202.098-.4.174-.592.448-1.156 1.466-2.17 2.804-2.802A8.457 8.457 0 0 1 18.468 10zm-3.816-7.07c-1.33.695-2.342 1.754-2.805 2.95a3.54 3.54 0 0 0-.183.602 13.482 13.482 0 0 0-3.043-.73 17.127 17.127 0 0 1 2.13-4.185 8.412 8.412 0 0 1 3.901 1.362zm-4.52-1.395a17.768 17.768 0 0 0-2.055 4.164l-.115-.01a12.34 12.34 0 0 0-2.43.077 5.262 5.262 0 0 0-.214-2.818A8.419 8.419 0 0 1 10 1.532l.133.003zM4.874 3.267a4.8 4.8 0 0 1 .103 2.586 11.55 11.55 0 0 0-2.78.86 8.513 8.513 0 0 1 2.677-3.446zM1.928 7.439a10.4 10.4 0 0 1 2.89-1.017l-.013.04c-.17.448-.37.884-.599 1.305-.73 1.436-1.701 3.35-1.597 6.36a8.45 8.45 0 0 1-.68-6.688zm1.278 7.61c-.363-3.428.697-5.515 1.473-7.04.24-.444.45-.903.628-1.374a6.21 6.21 0 0 0 .098-.315 11.826 11.826 0 0 1 2.501-.101c-1.025 3.28-1.318 7.156-.897 11.702a8.511 8.511 0 0 1-3.803-2.872zm4.354 3.06c-.452-4.63-.162-8.55.89-11.842 1.068.119 2.118.37 3.124.748a7.326 7.326 0 0 0 .193 2.76c.142.482.32.954.53 1.41.62 1.448 1.387 3.245 1.131 6.556a8.444 8.444 0 0 1-5.868.367zm6.42-.637c.193-3.25-.604-5.117-1.194-6.496-.2-.433-.368-.88-.504-1.336a6.823 6.823 0 0 1-.2-2.424c2.14.892 4.223 2.365 6.229 4.408a8.494 8.494 0 0 1-4.331 5.848z"/></svg><svg fill="none" viewBox="0 0 20 20" id="sport--fb" xmlns="http://www.w3.org/2000/svg"><path d="M10 1a9 9 0 1 0 9 9 9.01 9.01 0 0 0-9-9zm6.97 4.317l-.624 2.651-3.286 1.096-2.76-2.208V3.603l3.15-1.26a8.451 8.451 0 0 1 3.52 2.974zm.05 9.287l-2.975.47-1.62-2.14.825-3.3L16.5 8.55l1.861 2.234a8.345 8.345 0 0 1-1.341 3.82zm-11.052.471l-2.988-.471a8.347 8.347 0 0 1-1.341-3.82l1.86-2.234 3.25 1.082.825 3.302-1.606 2.141zM1.603 9.888a8.346 8.346 0 0 1 .984-3.834l.487 2.07-1.471 1.764zM8.134 12.7l-.796-3.187L10 7.384l2.662 2.13-.796 3.186H8.134zm8.792-4.577l.487-2.07c.63 1.18.968 2.495.984 3.834l-1.47-1.764zm-4.294-6.098L10 3.077 7.354 2.03a8.37 8.37 0 0 1 5.278-.004zm-6.096.325L9.7 3.604v3.252L6.94 9.064 3.654 7.968 3.03 5.317A8.453 8.453 0 0 1 6.536 2.35zM3.48 15.29l2.439.385 1.475 2.31A8.427 8.427 0 0 1 3.48 15.29zm4.774 2.927l-1.79-2.803L8.05 13.3h3.9l1.608 2.124-1.56 2.734a8.373 8.373 0 0 1-3.743.06v-.002zm4.576-.31l1.28-2.237 2.409-.38a8.432 8.432 0 0 1-3.689 2.618z"/></svg><svg fill="none" viewBox="0 0 20 16" id="sport--hk" xmlns="http://www.w3.org/2000/svg"><path d="M16.227 2.242C14.555 1.442 12.343 1 10 1c-2.343 0-4.555.441-6.227 1.242C1.985 3.1 1 4.28 1 5.564v4.871c0 1.286.985 2.466 2.773 3.323C5.445 14.558 7.657 15 10 15c2.343 0 4.555-.441 6.227-1.242C18.015 12.9 19 11.72 19 10.436V5.563c0-1.285-.985-2.465-2.773-3.322zm1.718 8.193c0 .87-.798 1.752-2.19 2.419-1.528.732-3.572 1.135-5.755 1.135s-4.227-.403-5.755-1.135c-1.392-.667-2.19-1.548-2.19-2.418v-2.69c.442.42 1.018.806 1.718 1.14C5.445 9.689 7.657 10.13 10 10.13c2.343 0 4.555-.441 6.227-1.242.7-.335 1.276-.72 1.718-1.141v2.69zm-2.19-2.452c-1.528.732-3.572 1.135-5.755 1.135s-4.227-.403-5.755-1.135c-1.392-.667-2.19-1.548-2.19-2.419 0-.87.798-1.751 2.19-2.418C5.773 2.414 7.817 2.011 10 2.011s4.227.403 5.755 1.135c1.392.667 2.19 1.548 2.19 2.418 0 .87-.798 1.752-2.19 2.419z"/></svg><svg fill="none" viewBox="0 0 20 20" id="sport--other" xmlns="http://www.w3.org/2000/svg"><path d="M7.404 1H2.31C1.588 1 1 1.588 1 2.31v5.094c0 .723.588 1.31 1.31 1.31h5.094c.723 0 1.31-.587 1.31-1.31V2.31c0-.722-.587-1.31-1.31-1.31zm0 7.071H2.31a.668.668 0 0 1-.667-.667V2.31c0-.368.299-.667.667-.667h5.094c.368 0 .667.299.667.667v5.094c0 .368-.299.667-.667.667zM17.69 1h-5.094c-.723 0-1.31.588-1.31 1.31v5.094c0 .723.588 1.31 1.31 1.31h5.094c.722 0 1.31-.587 1.31-1.31V2.31C19 1.588 18.412 1 17.69 1zm.667 6.404c0 .368-.3.667-.667.667h-5.094a.668.668 0 0 1-.668-.667V2.31c0-.368.3-.667.668-.667h5.094c.368 0 .667.299.667.667v5.094zM7.404 11.286H2.31c-.722 0-1.31.587-1.31 1.31v5.094c0 .723.588 1.31 1.31 1.31h5.094c.723 0 1.31-.588 1.31-1.31v-5.095c0-.722-.587-1.31-1.31-1.31zm0 7.071H2.31a.668.668 0 0 1-.667-.667v-5.094c0-.368.299-.667.667-.667h5.094c.368 0 .667.299.667.667v5.094c0 .368-.299.667-.667.667zM17.69 11.286h-5.094c-.723 0-1.31.587-1.31 1.31v5.094c0 .723.588 1.31 1.31 1.31h5.094c.722 0 1.31-.588 1.31-1.31v-5.095c0-.722-.588-1.31-1.31-1.31zm.667 6.404c0 .368-.3.667-.667.667h-5.094a.668.668 0 0 1-.668-.667v-5.094c0-.368.3-.667.668-.667h5.094c.368 0 .667.299.667.667v5.094z"/><path d="M7.404 1H2.31C1.588 1 1 1.588 1 2.31v5.094c0 .723.588 1.31 1.31 1.31h5.094c.723 0 1.31-.587 1.31-1.31V2.31c0-.722-.587-1.31-1.31-1.31zm0 7.071H2.31a.668.668 0 0 1-.667-.667V2.31c0-.368.299-.667.667-.667h5.094c.368 0 .667.299.667.667v5.094c0 .368-.299.667-.667.667zM17.69 1h-5.094c-.723 0-1.31.588-1.31 1.31v5.094c0 .723.588 1.31 1.31 1.31h5.094c.722 0 1.31-.587 1.31-1.31V2.31C19 1.588 18.412 1 17.69 1zm.667 6.404c0 .368-.3.667-.667.667h-5.094a.668.668 0 0 1-.668-.667V2.31c0-.368.3-.667.668-.667h5.094c.368 0 .667.299.667.667v5.094zM7.404 11.286H2.31c-.722 0-1.31.587-1.31 1.31v5.094c0 .723.588 1.31 1.31 1.31h5.094c.723 0 1.31-.588 1.31-1.31v-5.095c0-.722-.587-1.31-1.31-1.31zm0 7.071H2.31a.668.668 0 0 1-.667-.667v-5.094c0-.368.299-.667.667-.667h5.094c.368 0 .667.299.667.667v5.094c0 .368-.299.667-.667.667zM17.69 11.286h-5.094c-.723 0-1.31.587-1.31 1.31v5.094c0 .723.588 1.31 1.31 1.31h5.094c.722 0 1.31-.588 1.31-1.31v-5.095c0-.722-.588-1.31-1.31-1.31zm.667 6.404c0 .368-.3.667-.667.667h-5.094a.668.668 0 0 1-.668-.667v-5.094c0-.368.3-.667.668-.667h5.094c.368 0 .667.299.667.667v5.094z"/></svg><svg fill="none" viewBox="0 0 20 20" id="sport--te" xmlns="http://www.w3.org/2000/svg"><path d="M16.364 3.636A8.938 8.938 0 0 0 10 1a8.938 8.938 0 0 0-6.364 2.636A8.94 8.94 0 0 0 1 10a8.94 8.94 0 0 0 2.636 6.364A8.938 8.938 0 0 0 10 19a8.938 8.938 0 0 0 6.364-2.636A8.94 8.94 0 0 0 19 10a8.94 8.94 0 0 0-2.636-6.364zm-11.932.796a7.812 7.812 0 0 1 4.55-2.234c-.032.781.08 2.09 1.018 3.03.673.673 1.432.997 2.165 1.312.665.285 1.293.554 1.813 1.073.962.963 1.375 3.398-.796 5.57-2.17 2.17-4.606 1.756-5.568.794-.52-.52-.79-1.148-1.074-1.813-.315-.733-.64-1.491-1.313-2.165-.939-.939-2.248-1.05-3.029-1.018a7.806 7.806 0 0 1 2.234-4.55zm11.136 11.136A7.822 7.822 0 0 1 10 17.875a7.822 7.822 0 0 1-5.568-2.307 7.819 7.819 0 0 1-2.301-5.456c.557-.037 1.615-.002 2.3.683.52.52.79 1.148 1.075 1.813.314.734.64 1.492 1.313 2.165.7.7 1.745 1.109 2.907 1.109 1.377 0 2.92-.572 4.251-1.904 2.457-2.456 2.326-5.63.796-7.16-.673-.673-1.431-.998-2.165-1.312-.665-.286-1.292-.554-1.813-1.074-.685-.686-.72-1.743-.683-2.301a7.819 7.819 0 0 1 5.456 2.3A7.824 7.824 0 0 1 17.875 10c0 2.103-.82 4.08-2.307 5.568z"/></svg><svg fill="none" viewBox="0 0 20 20" id="sport--vb" xmlns="http://www.w3.org/2000/svg"><path d="M10 19a8.997 8.997 0 0 0 8.29-5.49l.003-.004A8.95 8.95 0 0 0 19 10c0-4.976-4.027-9-9-9-4.978 0-9 4.025-9 9 0 4.944 3.996 9 9 9zm3.77-1.606c1.355-3.02-.194-6.668-3.477-7.675a4.845 4.845 0 0 1 .514-3.504 9.116 9.116 0 0 1 6.795 7.116 8.317 8.317 0 0 1-3.833 4.063zM18.296 10c0 .728-.093 1.442-.276 2.133a9.81 9.81 0 0 0-6.798-6.537 4.91 4.91 0 0 1 4.205-1.872A8.269 8.269 0 0 1 18.297 10zm-3.779-6.962a5.622 5.622 0 0 0-4.177 2.589 5.545 5.545 0 0 0-.731 4.26 4.841 4.841 0 0 1-3.292 1.306L6.264 11a9.15 9.15 0 0 1-.07-4.468A9.178 9.178 0 0 1 9.08 1.754a8.262 8.262 0 0 1 5.438 1.284zM7.834 1.99A9.9 9.9 0 0 0 5.51 6.37a9.857 9.857 0 0 0 .065 4.772A4.909 4.909 0 0 1 1.85 8.437C2.444 5.32 4.82 2.81 7.834 1.99zm-6.12 7.582a5.628 5.628 0 0 0 4.578 2.325 5.537 5.537 0 0 0 3.805-1.502 4.84 4.84 0 0 1 2.778 2.199c-.09.075-1.188 1.335-3.128 2.136a.352.352 0 0 0 .269.65A9.968 9.968 0 0 0 13.2 13.26a4.91 4.91 0 0 1-.482 4.58 8.278 8.278 0 0 1-2.719.456 8.224 8.224 0 0 1-5.858-2.417 9.867 9.867 0 0 0 2.885.206.352.352 0 0 0-.052-.701 9.147 9.147 0 0 1-3.658-.466 8.243 8.243 0 0 1-1.603-5.347z"/><path d="M8.313 15.203a.352.352 0 1 0 0-.703.352.352 0 0 0 0 .703z"/><path d="M10 19a8.997 8.997 0 0 0 8.29-5.49l.003-.004A8.95 8.95 0 0 0 19 10c0-4.976-4.027-9-9-9-4.978 0-9 4.025-9 9 0 4.944 3.996 9 9 9zm3.77-1.606c1.355-3.02-.194-6.668-3.477-7.675a4.845 4.845 0 0 1 .514-3.504 9.116 9.116 0 0 1 6.795 7.116 8.317 8.317 0 0 1-3.833 4.063zM18.296 10c0 .728-.093 1.442-.276 2.133a9.81 9.81 0 0 0-6.798-6.537 4.91 4.91 0 0 1 4.205-1.872A8.269 8.269 0 0 1 18.297 10zm-3.779-6.962a5.622 5.622 0 0 0-4.177 2.589 5.545 5.545 0 0 0-.731 4.26 4.841 4.841 0 0 1-3.292 1.306L6.264 11a9.15 9.15 0 0 1-.07-4.468A9.178 9.178 0 0 1 9.08 1.754a8.262 8.262 0 0 1 5.438 1.284zM7.834 1.99A9.9 9.9 0 0 0 5.51 6.37a9.857 9.857 0 0 0 .065 4.772A4.909 4.909 0 0 1 1.85 8.437C2.444 5.32 4.82 2.81 7.834 1.99zm-6.12 7.582a5.628 5.628 0 0 0 4.578 2.325 5.537 5.537 0 0 0 3.805-1.502 4.84 4.84 0 0 1 2.778 2.199c-.09.075-1.188 1.335-3.128 2.136a.352.352 0 0 0 .269.65A9.968 9.968 0 0 0 13.2 13.26a4.91 4.91 0 0 1-.482 4.58 8.278 8.278 0 0 1-2.719.456 8.224 8.224 0 0 1-5.858-2.417 9.867 9.867 0 0 0 2.885.206.352.352 0 0 0-.052-.701 9.147 9.147 0 0 1-3.658-.466 8.243 8.243 0 0 1-1.603-5.347z"/><path d="M8.313 15.203a.352.352 0 1 0 0-.703.352.352 0 0 0 0 .703z"/></svg></svg>