<svg width="175" height="56" viewBox="0 0 175 56" fill="none" xmlns="http://www.w3.org/2000/svg">
<path d="M28.2288 56C43.8191 56 56.4576 43.464 56.4576 28C56.4576 12.536 43.8191 0 28.2288 0C12.6385 0 0 12.536 0 28C0 43.464 12.6385 56 28.2288 56Z" fill="white"/>
<path fill-rule="evenodd" clip-rule="evenodd" d="M28.2279 4.31201C32.5801 4.31201 36.6598 5.46742 40.1725 7.4844L45.4663 5.82543L43.2997 9.58184L43.2569 9.59179L43.2678 9.60083L33.8133 25.8434H25.1526L28.7492 19.664H20.6892L22.215 22.303L9.99596 43.2965C6.47227 39.1694 4.34766 33.8308 4.34766 27.9996C4.34766 14.9177 15.0391 4.31201 28.2279 4.31201ZM15.4975 30.1549H11.4452L8.95964 25.8434L16.5977 12.7117H37.1264L33.0768 19.665L31.5538 17.0242H19.096L15.0318 23.9991L11.4525 25.8434H18.0077L15.4975 30.1549Z" fill="#DE2A2D"/>
<path fill-rule="evenodd" clip-rule="evenodd" d="M28.2286 51.6876C23.8764 51.6876 19.7977 50.5322 16.284 48.5152L10.9902 50.1742L13.1568 46.4178L13.1996 46.4078L13.1878 46.3988L22.6423 30.1562H31.3039L27.7073 36.3356H35.7673L34.2424 33.6957L46.4605 12.7031C49.9842 16.8302 52.1098 22.1688 52.1098 28C52.1098 41.0819 41.4174 51.6876 28.2286 51.6876ZM40.959 25.8438H45.0113L47.4978 30.1562L39.8589 43.2879H19.3301L23.3797 36.3346L24.9027 38.9754H37.3605L41.4247 31.9996L45.004 30.1562H38.4488L40.959 25.8438Z" fill="#0E3770"/>
<path d="M78.5932 29.7368V35.2715H68.651V29.7368H63.4985V43.287H68.651V38.4313H78.5932V43.287H83.7457V29.7368H78.5932ZM109.143 43.287H125.97C126.911 43.287 127.715 42.9399 128.385 42.2483C129.054 41.5557 129.391 40.715 129.391 39.725V38.1347C129.391 37.3708 129.126 36.7135 128.599 36.1621C129.126 35.6386 129.391 34.9813 129.391 34.1894V33.2989C129.391 32.3098 129.054 31.4672 128.385 30.7756C127.716 30.084 126.908 29.7368 125.97 29.7368H109.143C109.143 34.2536 109.143 38.7703 109.143 43.287ZM124.237 40.0215H114.296V37.7523H124.237V40.0215ZM114.296 34.975V32.987L124.27 33.0023L124.248 34.975H114.296ZM101.416 29.7368H106.569V39.725C106.569 40.7131 106.216 41.5557 105.51 42.2483C104.805 42.9408 103.959 43.287 102.977 43.287H94.5957H89.9965C87.9138 43.287 86.3369 41.695 86.3187 39.64L86.3215 29.7368H91.4739V39.9158H101.416V29.7368Z" fill="white"/>
<path d="M175 12.5548C174.963 14.5628 172.812 15.9117 170.949 15.9316H166.936V26.1114H161.263V15.9316L157.25 15.9307C155.225 15.9307 153.201 14.3747 153.201 12.5548C159.849 12.563 168.351 12.563 175 12.5548ZM78.5995 20.8199H67.4178C65.4745 20.8199 63.5049 19.1672 63.5049 17.1511V16.1015C63.5049 14.0041 65.3159 12.5594 67.354 12.5594L83.752 12.5386C83.752 14.3585 81.5126 15.8104 79.7024 15.8104L68.6574 15.8258V17.8509H79.7544C81.6411 17.8509 83.752 19.0027 83.752 21.0956V22.5485C83.752 24.6522 81.8699 26.1114 79.84 26.1114H63.5049C63.5477 24.4036 65.5557 23.0321 67.2938 22.9038L78.5995 22.9517V20.8199ZM91.4812 15.8258C91.4812 19.254 91.4812 22.6832 91.4812 26.1114H86.3287C86.3287 21.5938 86.3287 17.077 86.3287 12.5594H102.795C104.827 12.5594 106.836 13.9607 106.836 16.1015V17.7135C106.836 19.8525 104.823 21.2656 102.795 21.2547L92.9742 21.2041C93.0917 19.509 95.1325 18.1682 96.8597 18.0896C98.0136 18.0932 100.622 18.095 101.683 18.095V15.8258H91.4812ZM125.741 12.5594H112.764C110.759 12.5594 109.151 14.127 109.151 16.1223V22.5485C109.151 24.5428 110.758 26.1114 112.764 26.1114H125.741C127.756 26.1114 129.397 24.5654 129.397 22.5485V16.1223C129.397 14.1053 127.755 12.5594 125.741 12.5594ZM124.244 22.7392H114.303V15.9316H124.244V22.7392ZM137.124 15.8258H147.066V18.095H139.326L145.409 26.1322H151.075L146.814 21.1065H148.447C150.372 21.1065 152.218 19.5044 152.218 17.7135V16.1223C152.218 14.0999 150.526 12.5594 148.519 12.5594H131.972V26.1114H137.124V15.8258Z" fill="white"/>
</svg>
