<svg width="20" height="13" viewBox="0 0 20 13" fill="none" xmlns="http://www.w3.org/2000/svg">
<path d="M18.9334 6.27686C18.7916 6.06078 15.385 1 9.99997 1C5.37913 1 1.26156 6.03172 1.08831 6.24622C0.970565 6.39236 0.970565 6.60686 1.08831 6.75378C1.26156 6.96828 5.37913 12 9.99997 12C14.6208 12 18.7383 6.96828 18.9116 6.75378C19.0204 6.61865 19.0301 6.42301 18.9334 6.27686ZM9.99997 11.2143C6.29567 11.2143 2.77358 7.51359 1.87884 6.50002C2.77211 5.48567 6.29043 1.78574 9.99997 1.78574C14.3343 1.78574 17.3936 5.48096 18.1406 6.4788C17.2781 7.46015 13.7358 11.2143 9.99997 11.2143Z"  />
<path d="M9.99997 3.35714C8.34545 3.35714 6.99993 4.76671 6.99993 6.49998C6.99993 8.23325 8.34545 9.64282 9.99997 9.64282C11.6545 9.64282 13 8.23325 13 6.49998C13 4.76671 11.6545 3.35714 9.99997 3.35714ZM9.99997 8.85716C8.75946 8.85716 7.74993 7.79958 7.74993 6.50002C7.74993 5.20046 8.75946 4.14288 9.99997 4.14288C11.2405 4.14288 12.25 5.20046 12.25 6.50002C12.25 7.79958 11.2405 8.85716 9.99997 8.85716Z"  />
<path d="M18.9334 6.27686C18.7916 6.06078 15.385 1 9.99997 1C5.37913 1 1.26156 6.03172 1.08831 6.24622C0.970565 6.39236 0.970565 6.60686 1.08831 6.75378C1.26156 6.96828 5.37913 12 9.99997 12C14.6208 12 18.7383 6.96828 18.9116 6.75378C19.0204 6.61865 19.0301 6.42301 18.9334 6.27686ZM9.99997 11.2143C6.29567 11.2143 2.77358 7.51359 1.87884 6.50002C2.77211 5.48567 6.29043 1.78574 9.99997 1.78574C14.3343 1.78574 17.3936 5.48096 18.1406 6.4788C17.2781 7.46015 13.7358 11.2143 9.99997 11.2143Z"   stroke-width="0.7"/>
<path d="M9.99997 3.35714C8.34545 3.35714 6.99993 4.76671 6.99993 6.49998C6.99993 8.23325 8.34545 9.64282 9.99997 9.64282C11.6545 9.64282 13 8.23325 13 6.49998C13 4.76671 11.6545 3.35714 9.99997 3.35714ZM9.99997 8.85716C8.75946 8.85716 7.74993 7.79958 7.74993 6.50002C7.74993 5.20046 8.75946 4.14288 9.99997 4.14288C11.2405 4.14288 12.25 5.20046 12.25 6.50002C12.25 7.79958 11.2405 8.85716 9.99997 8.85716Z"  stroke-width="0.7"/>
</svg>
