<svg width="20" height="16" fill="none" xmlns="http://www.w3.org/2000/svg"><path d="M16.227 2.242C14.555 1.442 12.343 1 10 1c-2.343 0-4.555.441-6.227 1.242C1.985 3.1 1 4.28 1 5.564v4.871c0 1.286.985 2.466 2.773 3.323C5.445 14.558 7.657 15 10 15c2.343 0 4.555-.441 6.227-1.242C18.015 12.9 19 11.72 19 10.436V5.563c0-1.285-.985-2.465-2.773-3.322zm1.718 8.193c0 .87-.798 1.752-2.19 2.419-1.528.732-3.572 1.135-5.755 1.135s-4.227-.403-5.755-1.135c-1.392-.667-2.19-1.548-2.19-2.418v-2.69c.442.42 1.018.806 1.718 1.14C5.445 9.689 7.657 10.13 10 10.13c2.343 0 4.555-.441 6.227-1.242.7-.335 1.276-.72 1.718-1.141v2.69zm-2.19-2.452c-1.528.732-3.572 1.135-5.755 1.135s-4.227-.403-5.755-1.135c-1.392-.667-2.19-1.548-2.19-2.419 0-.87.798-1.751 2.19-2.418C5.773 2.414 7.817 2.011 10 2.011s4.227.403 5.755 1.135c1.392.667 2.19 1.548 2.19 2.418 0 .87-.798 1.752-2.19 2.419z" fill="#1D88B6" stroke="#1D88B6" stroke-width=".6"/></svg>