<svg width="20" height="20" fill="none" xmlns="http://www.w3.org/2000/svg"><path d="M10 1a9 9 0 1 0 9 9 9.01 9.01 0 0 0-9-9zm6.97 4.317l-.624 2.651-3.286 1.096-2.76-2.208V3.603l3.15-1.26a8.451 8.451 0 0 1 3.52 2.974zm.05 9.287l-2.975.47-1.62-2.14.825-3.3L16.5 8.55l1.861 2.234a8.345 8.345 0 0 1-1.341 3.82zm-11.052.471l-2.988-.471a8.347 8.347 0 0 1-1.341-3.82l1.86-2.234 3.25 1.082.825 3.302-1.606 2.141zM1.603 9.888a8.346 8.346 0 0 1 .984-3.834l.487 2.07-1.471 1.764zM8.134 12.7l-.796-3.187L10 7.384l2.662 2.13-.796 3.186H8.134zm8.792-4.577l.487-2.07c.63 1.18.968 2.495.984 3.834l-1.47-1.764zm-4.294-6.098L10 3.077 7.354 2.03a8.37 8.37 0 0 1 5.278-.004zm-6.096.325L9.7 3.604v3.252L6.94 9.064 3.654 7.968 3.03 5.317A8.453 8.453 0 0 1 6.536 2.35zM3.48 15.29l2.439.385 1.475 2.31A8.427 8.427 0 0 1 3.48 15.29zm4.774 2.927l-1.79-2.803L8.05 13.3h3.9l1.608 2.124-1.56 2.734a8.373 8.373 0 0 1-3.743.06v-.002zm4.576-.31l1.28-2.237 2.409-.38a8.432 8.432 0 0 1-3.689 2.618z" fill="#009A06" stroke="#009A06"/></svg>