<svg width="20" height="20" fill="none" xmlns="http://www.w3.org/2000/svg"><path d="M16.364 3.636A8.938 8.938 0 0 0 10 1a8.938 8.938 0 0 0-6.364 2.636A8.94 8.94 0 0 0 1 10a8.94 8.94 0 0 0 2.636 6.364A8.938 8.938 0 0 0 10 19a8.938 8.938 0 0 0 6.364-2.636A8.94 8.94 0 0 0 19 10a8.94 8.94 0 0 0-2.636-6.364zm-11.932.796a7.812 7.812 0 0 1 4.55-2.234c-.032.781.08 2.09 1.018 3.03.673.673 1.432.997 2.165 1.312.665.285 1.293.554 1.813 1.073.962.963 1.375 3.398-.796 5.57-2.17 2.17-4.606 1.756-5.568.794-.52-.52-.79-1.148-1.074-1.813-.315-.733-.64-1.491-1.313-2.165-.939-.939-2.248-1.05-3.029-1.018a7.806 7.806 0 0 1 2.234-4.55zm11.136 11.136A7.822 7.822 0 0 1 10 17.875a7.822 7.822 0 0 1-5.568-2.307 7.819 7.819 0 0 1-2.301-5.456c.557-.037 1.615-.002 2.3.683.52.52.79 1.148 1.075 1.813.314.734.64 1.492 1.313 2.165.7.7 1.745 1.109 2.907 1.109 1.377 0 2.92-.572 4.251-1.904 2.457-2.456 2.326-5.63.796-7.16-.673-.673-1.431-.998-2.165-1.312-.665-.286-1.292-.554-1.813-1.074-.685-.686-.72-1.743-.683-2.301a7.819 7.819 0 0 1 5.456 2.3A7.824 7.824 0 0 1 17.875 10c0 2.103-.82 4.08-2.307 5.568z" fill="#E8B500" stroke="#E8B500" stroke-width=".5"/></svg>