<svg width="6" height="12" viewBox="0 0 6 12" fill="none" xmlns="http://www.w3.org/2000/svg">
<path d="M4.95385 5.85604L1.28713 1.06444C1.23993 1.003 1.16766 0.983059 1.1045 1.01521C1.04134 1.04675 1 1.12345 1 1.20849V2.04181C1 2.09511 1.01628 2.14638 1.04558 2.18503L3.93723 6.00006L1.04559 9.81512C1.0163 9.85377 1.00002 9.90504 1.00002 9.95834L1.00002 10.7917C1.00002 10.8767 1.04136 10.9534 1.10452 10.9849C1.1247 10.9951 1.14586 11 1.16669 11C1.21128 11 1.25491 10.9776 1.28713 10.9357L4.95385 6.14413C5.01538 6.06356 5.01538 5.93661 4.95385 5.85604Z" fill="#0E3770" stroke="#0E3770" stroke-width="0.5"/>
</svg>
