<svg width="16" height="16" viewBox="0 0 16 16" fill="none" xmlns="http://www.w3.org/2000/svg">
<path d="M5.8125 8.4375H10.1875C10.429 8.4375 10.625 8.6335 10.625 8.875C10.625 9.1165 10.429 9.3125 10.1875 9.3125H5.8125C5.571 9.3125 5.375 9.1165 5.375 8.875C5.375 8.6335 5.571 8.4375 5.8125 8.4375ZM4.9375 5.8125H11.0625C11.304 5.8125 11.5 6.0085 11.5 6.25C11.5 6.4915 11.304 6.6875 11.0625 6.6875H4.9375C4.696 6.6875 4.5 6.4915 4.5 6.25C4.5 6.0085 4.696 5.8125 4.9375 5.8125ZM8 1C11.8657 1 15 3.74224 15 7.125C15 9.05833 13.9741 10.7794 12.375 11.9021V15L9.30857 13.1393C8.88417 13.2093 8.44757 13.25 8 13.25C4.1338 13.25 1 10.5078 1 7.125C1 3.74224 4.1338 1 8 1ZM8 12.375C8.511 12.375 9.0045 12.3155 9.47876 12.2144L11.5385 13.4525L11.511 11.4234C13.0899 10.4736 14.125 8.90389 14.125 7.125C14.125 4.2257 11.3828 1.875 8 1.875C4.61724 1.875 1.875 4.2257 1.875 7.125C1.875 10.0243 4.61724 12.375 8 12.375Z" fill="#0E3770" stroke="#0E3770" stroke-width="0.7"/>
</svg>
