<svg width="175" height="56" fill="none" xmlns="http://www.w3.org/2000/svg"><path d="M28.229 56c15.59 0 28.229-12.536 28.229-28S43.819 0 28.228 0C12.639 0 0 12.536 0 28s12.639 28 28.229 28z" fill="#fff"/><path fill-rule="evenodd" clip-rule="evenodd" d="M28.228 4.312c4.352 0 8.432 1.155 11.944 3.172l5.294-1.659L43.3 9.582l-.043.01.01.009-9.454 16.242h-8.66l3.596-6.179h-8.06l1.526 2.639L9.996 43.297A23.475 23.475 0 0 1 4.348 28c0-13.082 10.691-23.688 23.88-23.688zm-12.73 25.843h-4.053L8.96 25.843l7.638-13.131h20.528l-4.05 6.953-1.522-2.64H19.096l-4.064 6.974-3.58 1.844h6.556l-2.51 4.312z" fill="#DE2A2D"/><path fill-rule="evenodd" clip-rule="evenodd" d="M28.229 51.688a23.92 23.92 0 0 1-11.945-3.173l-5.294 1.66 2.167-3.757.043-.01-.012-.01 9.454-16.242h8.662l-3.597 6.18h8.06l-1.525-2.64 12.219-20.993A23.476 23.476 0 0 1 52.11 28c0 13.082-10.693 23.688-23.881 23.688zm12.73-25.844h4.052l2.487 4.312-7.64 13.132H19.33l4.05-6.953 1.523 2.64H37.36L41.425 32l3.579-1.844h-6.555l2.51-4.312z" fill="#0E3770"/><path d="M78.593 29.737v5.535h-9.942v-5.535h-5.152v13.55h5.152v-4.856h9.942v4.856h5.153v-13.55h-5.153zm30.55 13.55h16.827c.941 0 1.745-.347 2.415-1.039.669-.692 1.006-1.533 1.006-2.523v-1.59c0-.764-.265-1.421-.792-1.973.527-.523.792-1.18.792-1.973v-.89c0-.99-.337-1.832-1.006-2.523-.669-.692-1.477-1.04-2.415-1.04h-16.827v13.551zm15.094-3.265h-9.941v-2.27h9.941v2.27zm-9.941-5.047v-1.988l9.974.015-.022 1.973h-9.952zm-12.88-5.238h5.153v9.988c0 .988-.353 1.83-1.059 2.523a3.49 3.49 0 0 1-2.533 1.039H89.996c-2.082 0-3.66-1.592-3.677-3.647l.002-9.903h5.153v10.179h9.942v-10.18zM175 12.555c-.037 2.008-2.188 3.357-4.051 3.377h-4.013v10.18h-5.673v-10.18l-4.013-.001c-2.025 0-4.049-1.556-4.049-3.376 6.648.008 15.15.008 21.799 0zM78.6 20.82H67.418c-1.944 0-3.913-1.653-3.913-3.669v-1.05c0-2.097 1.81-3.542 3.849-3.542l16.398-.02c0 1.82-2.24 3.271-4.05 3.271l-11.045.016v2.025h11.097c1.887 0 3.998 1.152 3.998 3.245v1.453c0 2.103-1.882 3.562-3.912 3.562H63.505c.043-1.707 2.05-3.079 3.789-3.207l11.306.048V20.82zm12.881-4.994V26.11H86.33V12.56h16.466c2.032 0 4.041 1.402 4.041 3.543v1.611c0 2.14-2.013 3.553-4.041 3.542l-9.82-.05c.117-1.696 2.157-3.037 3.885-3.115 1.154.003 3.762.005 4.823.005v-2.27H91.481zm34.26-3.267h-12.977c-2.005 0-3.613 1.568-3.613 3.563v6.427c0 1.994 1.607 3.562 3.613 3.562h12.977c2.015 0 3.656-1.546 3.656-3.563v-6.426c0-2.017-1.642-3.563-3.656-3.563zm-1.497 10.18h-9.941v-6.807h9.941v6.807zm12.88-6.913h9.942v2.269h-7.74l6.083 8.037h5.666l-4.261-5.026h1.633c1.925 0 3.771-1.602 3.771-3.393v-1.59c0-2.023-1.692-3.564-3.699-3.564h-16.547v13.552h5.152V15.826z" fill="#fff"/></svg>