<svg width="26" height="22" viewBox="0 0 26 22" xmlns="http://www.w3.org/2000/svg">
<path d="M24.5 9.90135L24 10.6513V12C24 13.103 23.103 14 22 14H17.6182C17.3662 14 17.2368 14.166 17.1929 14.2373C17.1484 14.3086 17.0581 14.4986 17.1709 14.7236L18.7764 17.9346C18.9228 18.2271 19 18.5547 19 18.8818C19 20.0498 18.0498 21 16.8818 21H16.5C16.3613 21 16.229 20.9424 16.1343 20.8413L10.748 15.0703C9.62106 13.8623 8.99997 12.2871 8.99997 10.6352V6C8.99997 3.24315 11.2431 1 14 1H19.4297C20.2675 1 21.0449 1.41601 21.5097 2.11328L24.5 6.59864C24.8272 7.08839 25 7.6597 25 8.25C25 8.84029 24.8272 9.41165 24.5 9.90135ZM23.668 7.15331L20.6777 2.66795C20.3989 2.2495 19.9321 1.99998 19.4297 1.99998H14C11.7944 2.00003 10 3.79445 10 6V10.6352C10 12.0327 10.5254 13.3657 11.4795 14.3876L16.7173 20H16.8818C17.4985 20 18 19.4985 18 18.8818C18 18.7095 17.959 18.5361 17.8818 18.3818L16.2763 15.1709C16.042 14.7026 16.0668 14.1567 16.3418 13.7114C16.6172 13.2661 17.0942 13 17.6181 13H22C22.5513 13 23 12.5513 23 12V10.5C23 10.4014 23.0293 10.3047 23.084 10.2227L23.668 9.34668C23.8852 9.02099 24 8.6421 24 8.25C24 7.85793 23.8853 7.479 23.668 7.15331Z" />
<path d="M6.00002 14H3.00002C1.89695 14 1 13.103 1 12V3.00001C1 1.897 1.89695 1 3.00002 1H6.00002C7.10303 1 8.00003 1.89695 8.00003 3.00001V12C7.99998 13.103 7.10303 14 6.00002 14ZM7 3.00001C7 2.44876 6.55127 2.00003 6.00002 2.00003H3.00002C2.44877 2.00003 2.00003 2.44876 2.00003 3.00001V12C2.00003 12.5512 2.44877 13 3.00002 13H6.00002C6.55127 13 7 12.5512 7 12V3.00001Z" />
<path d="M24.5 9.90135L24 10.6513V12C24 13.103 23.103 14 22 14H17.6182C17.3662 14 17.2368 14.166 17.1929 14.2373C17.1484 14.3086 17.0581 14.4986 17.1709 14.7236L18.7764 17.9346C18.9228 18.2271 19 18.5547 19 18.8818C19 20.0498 18.0498 21 16.8818 21H16.5C16.3613 21 16.229 20.9424 16.1343 20.8413L10.748 15.0703C9.62106 13.8623 8.99997 12.2871 8.99997 10.6352V6C8.99997 3.24315 11.2431 1 14 1H19.4297C20.2675 1 21.0449 1.41601 21.5097 2.11328L24.5 6.59864C24.8272 7.08839 25 7.6597 25 8.25C25 8.84029 24.8272 9.41165 24.5 9.90135ZM23.668 7.15331L20.6777 2.66795C20.3989 2.2495 19.9321 1.99998 19.4297 1.99998H14C11.7944 2.00003 10 3.79445 10 6V10.6352C10 12.0327 10.5254 13.3657 11.4795 14.3876L16.7173 20H16.8818C17.4985 20 18 19.4985 18 18.8818C18 18.7095 17.959 18.5361 17.8818 18.3818L16.2763 15.1709C16.042 14.7026 16.0668 14.1567 16.3418 13.7114C16.6172 13.2661 17.0942 13 17.6181 13H22C22.5513 13 23 12.5513 23 12V10.5C23 10.4014 23.0293 10.3047 23.084 10.2227L23.668 9.34668C23.8852 9.02099 24 8.6421 24 8.25C24 7.85793 23.8853 7.479 23.668 7.15331Z" stroke-width="0.7"/>
<path d="M6.00002 14H3.00002C1.89695 14 1 13.103 1 12V3.00001C1 1.897 1.89695 1 3.00002 1H6.00002C7.10303 1 8.00003 1.89695 8.00003 3.00001V12C7.99998 13.103 7.10303 14 6.00002 14ZM7 3.00001C7 2.44876 6.55127 2.00003 6.00002 2.00003H3.00002C2.44877 2.00003 2.00003 2.44876 2.00003 3.00001V12C2.00003 12.5512 2.44877 13 3.00002 13H6.00002C6.55127 13 7 12.5512 7 12V3.00001Z" stroke-width="0.7"/>
</svg>
