<svg width="26" height="22" viewBox="0 0 26 22" fill="none" xmlns="http://www.w3.org/2000/svg">
<path d="M24.5 12.0987L24 11.3487V10C24 8.89696 23.103 8.00001 22 8.00001H17.6182C17.3662 8.00001 17.2368 7.83398 17.1929 7.76268C17.1484 7.69138 17.0581 7.50145 17.1709 7.27635L18.7764 4.06543C18.9228 3.77293 19 3.44532 19 3.11818C19 1.9502 18.0498 1 16.8818 1H16.5C16.3613 1 16.229 1.05761 16.1343 1.15867L10.748 6.92972C9.62106 8.13773 8.99997 9.71291 8.99997 11.3648V16C8.99997 18.7568 11.2431 21 14 21H19.4297C20.2675 21 21.0449 20.584 21.5097 19.8867L24.5 15.4014C24.8272 14.9116 25 14.3403 25 13.75C25 13.1597 24.8272 12.5884 24.5 12.0987ZM23.668 14.8467L20.6777 19.3321C20.3989 19.7505 19.9321 20 19.4297 20H14C11.7944 20 10 18.2056 10 16V11.3648C10 9.9673 10.5254 8.63432 11.4795 7.61235L16.7173 2.00003H16.8818C17.4985 2.00003 18 2.5015 18 3.11818C18 3.29054 17.959 3.46388 17.8818 3.6182L16.2763 6.82912C16.042 7.2974 16.0668 7.84326 16.3418 8.28857C16.6172 8.73388 17.0942 8.99999 17.6181 8.99999H22C22.5513 8.99999 23 9.44872 23 9.99997V11.5C23 11.5986 23.0293 11.6953 23.084 11.7773L23.668 12.6533C23.8852 12.979 24 13.3579 24 13.75C24 14.1421 23.8853 14.521 23.668 14.8467Z" fill="#009A06"/>
<path d="M6.00002 8.00001H3.00002C1.89695 8.00001 1 8.89696 1 10V19C1 20.103 1.89695 21 3.00002 21H6.00002C7.10303 21 8.00003 20.103 8.00003 19V10C7.99998 8.89696 7.10303 8.00001 6.00002 8.00001ZM7 19C7 19.5512 6.55127 20 6.00002 20H3.00002C2.44877 20 2.00003 19.5512 2.00003 19V10C2.00003 9.44877 2.44877 9.00004 3.00002 9.00004H6.00002C6.55127 9.00004 7 9.44877 7 10V19Z" fill="#009A06"/>
<path d="M24.5 12.0987L24 11.3487V10C24 8.89696 23.103 8.00001 22 8.00001H17.6182C17.3662 8.00001 17.2368 7.83398 17.1929 7.76268C17.1484 7.69138 17.0581 7.50145 17.1709 7.27635L18.7764 4.06543C18.9228 3.77293 19 3.44532 19 3.11818C19 1.9502 18.0498 1 16.8818 1H16.5C16.3613 1 16.229 1.05761 16.1343 1.15867L10.748 6.92972C9.62106 8.13773 8.99997 9.71291 8.99997 11.3648V16C8.99997 18.7568 11.2431 21 14 21H19.4297C20.2675 21 21.0449 20.584 21.5097 19.8867L24.5 15.4014C24.8272 14.9116 25 14.3403 25 13.75C25 13.1597 24.8272 12.5884 24.5 12.0987ZM23.668 14.8467L20.6777 19.3321C20.3989 19.7505 19.9321 20 19.4297 20H14C11.7944 20 10 18.2056 10 16V11.3648C10 9.9673 10.5254 8.63432 11.4795 7.61235L16.7173 2.00003H16.8818C17.4985 2.00003 18 2.5015 18 3.11818C18 3.29054 17.959 3.46388 17.8818 3.6182L16.2763 6.82912C16.042 7.2974 16.0668 7.84326 16.3418 8.28857C16.6172 8.73388 17.0942 8.99999 17.6181 8.99999H22C22.5513 8.99999 23 9.44872 23 9.99997V11.5C23 11.5986 23.0293 11.6953 23.084 11.7773L23.668 12.6533C23.8852 12.979 24 13.3579 24 13.75C24 14.1421 23.8853 14.521 23.668 14.8467Z" stroke="#009A06" stroke-width="0.7"/>
<path d="M6.00002 8.00001H3.00002C1.89695 8.00001 1 8.89696 1 10V19C1 20.103 1.89695 21 3.00002 21H6.00002C7.10303 21 8.00003 20.103 8.00003 19V10C7.99998 8.89696 7.10303 8.00001 6.00002 8.00001ZM7 19C7 19.5512 6.55127 20 6.00002 20H3.00002C2.44877 20 2.00003 19.5512 2.00003 19V10C2.00003 9.44877 2.44877 9.00004 3.00002 9.00004H6.00002C6.55127 9.00004 7 9.44877 7 10V19Z" stroke="#009A06" stroke-width="0.7"/>
</svg>
