<svg width="20" height="20" fill="none" xmlns="http://www.w3.org/2000/svg"><path d="M10 19a8.997 8.997 0 0 0 8.29-5.49l.003-.004A8.95 8.95 0 0 0 19 10c0-4.976-4.027-9-9-9-4.978 0-9 4.025-9 9 0 4.944 3.996 9 9 9zm3.77-1.606c1.355-3.02-.194-6.668-3.477-7.675a4.845 4.845 0 0 1 .514-3.504 9.116 9.116 0 0 1 6.795 7.116 8.317 8.317 0 0 1-3.833 4.063zM18.296 10c0 .728-.093 1.442-.276 2.133a9.81 9.81 0 0 0-6.798-6.537 4.91 4.91 0 0 1 4.205-1.872A8.269 8.269 0 0 1 18.297 10zm-3.779-6.962a5.622 5.622 0 0 0-4.177 2.589 5.545 5.545 0 0 0-.731 4.26 4.841 4.841 0 0 1-3.292 1.306L6.264 11a9.15 9.15 0 0 1-.07-4.468A9.178 9.178 0 0 1 9.08 1.754a8.262 8.262 0 0 1 5.438 1.284zM7.834 1.99A9.9 9.9 0 0 0 5.51 6.37a9.857 9.857 0 0 0 .065 4.772A4.909 4.909 0 0 1 1.85 8.437C2.444 5.32 4.82 2.81 7.834 1.99zm-6.12 7.582a5.628 5.628 0 0 0 4.578 2.325 5.537 5.537 0 0 0 3.805-1.502 4.84 4.84 0 0 1 2.778 2.199c-.09.075-1.188 1.335-3.128 2.136a.352.352 0 0 0 .269.65 9.968 9.968 0 0 0 3.184-2.12 4.91 4.91 0 0 1-.482 4.58 8.278 8.278 0 0 1-2.719.456 8.224 8.224 0 0 1-5.858-2.417 9.867 9.867 0 0 0 2.885.206.352.352 0 0 0-.052-.701 9.147 9.147 0 0 1-3.658-.466 8.243 8.243 0 0 1-1.603-5.347z" fill="#242A76"/><path d="M8.313 15.203a.352.352 0 1 0 0-.703.352.352 0 0 0 0 .703z" fill="#242A76"/><path d="M10 19a8.997 8.997 0 0 0 8.29-5.49l.003-.004A8.95 8.95 0 0 0 19 10c0-4.976-4.027-9-9-9-4.978 0-9 4.025-9 9 0 4.944 3.996 9 9 9zm3.77-1.606c1.355-3.02-.194-6.668-3.477-7.675a4.845 4.845 0 0 1 .514-3.504 9.116 9.116 0 0 1 6.795 7.116 8.317 8.317 0 0 1-3.833 4.063zM18.296 10c0 .728-.093 1.442-.276 2.133a9.81 9.81 0 0 0-6.798-6.537 4.91 4.91 0 0 1 4.205-1.872A8.269 8.269 0 0 1 18.297 10zm-3.779-6.962a5.622 5.622 0 0 0-4.177 2.589 5.545 5.545 0 0 0-.731 4.26 4.841 4.841 0 0 1-3.292 1.306L6.264 11a9.15 9.15 0 0 1-.07-4.468A9.178 9.178 0 0 1 9.08 1.754a8.262 8.262 0 0 1 5.438 1.284zM7.834 1.99A9.9 9.9 0 0 0 5.51 6.37a9.857 9.857 0 0 0 .065 4.772A4.909 4.909 0 0 1 1.85 8.437C2.444 5.32 4.82 2.81 7.834 1.99zm-6.12 7.582a5.628 5.628 0 0 0 4.578 2.325 5.537 5.537 0 0 0 3.805-1.502 4.84 4.84 0 0 1 2.778 2.199c-.09.075-1.188 1.335-3.128 2.136a.352.352 0 0 0 .269.65 9.968 9.968 0 0 0 3.184-2.12 4.91 4.91 0 0 1-.482 4.58 8.278 8.278 0 0 1-2.719.456 8.224 8.224 0 0 1-5.858-2.417 9.867 9.867 0 0 0 2.885.206.352.352 0 0 0-.052-.701 9.147 9.147 0 0 1-3.658-.466 8.243 8.243 0 0 1-1.603-5.347z" stroke="#242A76" stroke-width=".8"/><path d="M8.313 15.203a.352.352 0 1 0 0-.703.352.352 0 0 0 0 .703z" stroke="#242A76" stroke-width=".8"/></svg>