<svg width="18" height="18" fill="none" xmlns="http://www.w3.org/2000/svg"><g clip-path="url(#clip0)" fill-rule="evenodd" clip-rule="evenodd"><path d="M0 0h35.995v11.955H0V0z" fill="#B20000"/><path d="M0 11.955h35.995v6.044H0v-6.044z" fill="#429F00"/><path d="M0 0h3.984v17.995H0V0z" fill="#fff"/><path d="M.189.305H.38V.61H.189V.305zm.57 0h.569V.61H.762L.758.305zM.946 0h.192v.305H.943L.947 0zm.95 0h.19v.305h-.19V0zm.762.305h.566V.61h-.57L2.66.305zM2.844 0h.19v.305h-.19V0zM.57.61h.38v.304H.57V.61zm.57 0h.38v.304h-.38V.61zm1.327 0h.381v.304h-.38V.61zm.57 0h.373v.304h-.37L3.037.61zM.38.914h.377v.305H.381V.914zm.947 0h.38v.305h-.38V.914zm.95 0h.378v.305h-.378V.914zm.947 0h.381v.305h-.38V.914zm.381-.61h.189V.61h-.189V.305zM.19 1.22h.38v.305H.19V1.22zm1.328 0h.38v.305h-.38V1.22zm1.9 0h.378v.305h-.377V1.22zm-3.036.922h.377v.304H.381v-.304zm.189.304h.38v.305H.57v-.305zm.762-.304h.373v.304h-.377l.004-.304zm-.193.304h.378v.305H1.14v-.305zm-.38.305h.569v.298H.762L.758 2.75zm.188.298h.192v.308H.943l.004-.308zm1.331-.915h.378v.309h-.378v-.309zm.19.309h.38v.304h-.38v-.304zm.761-.305h.377v.305h-.38l.003-.305zm-.192.305h.373v.304h-.37l-.003-.304zm-.381.304h.573v.302h-.573v-.302zm.192.302h.189v.308h-.189v-.308zm-.95-.302h.188v.302h-.188v-.302zM0 2.746h.189v.302H0v-.302zm3.795 0h.189v.302h-.189v-.302zM.947 4.27h.192v.305H.943l.004-.305zm-.189.305h.57v.305H.762l-.004-.305zM.57 4.88h.95v.305H.57V4.88zm2.278-.61h.189v.305h-.189V4.27z" fill="#B20000"/><path d="M2.656 4.575h.573v.305h-.573v-.305zm-.189.305h.947v.305h-.947V4.88zm.189 1.524h.95v.308h-.95v-.308zm-.378-1.216h1.328v.305H2.278v-.305zm-1.897 0h1.324v.305H.381v-.305zM.57 6.712h.57v.308H.57v-.308zm-.19-.301h.947v.305H.38V6.41zm2.656-.613h.947v.308H3.04l-.003-.308zm-.189.914h.57v.305h-.57v-.305zm-2.09.305H.95v.304H.758v-.304zm2.279 0h.188v.304h-.188v-.304zM0 5.794h.95v.308H0v-.308zm1.705.613h.573v.305h-.573v-.305zm.193.305h.188v.305h-.188v-.305zm-.57-.918h1.328v.308H1.328v-.308zm.762-4.571h.377v.3h-.38l.003-.3zm-.385.3h.57v.306h-.57v-.305zm-.192.306h.38v.304h-.376l-.004-.304zm.57 0h.384v.304h-.38l-.004-.304zM0 1.524h.381v.305H0v-.305zm.189.305h.38v.304H.19V1.83zm3.417-.305h.378v.305h-.378v-.305zm-.196.305h.381v.304h-.373L3.41 1.83zM0 4.575h.189v.305H0v-.305zm3.795 0h.189v.305h-.189v-.305zM1.709 7.017h.57v.304h-.574l.004-.304zm-.192.304h.38v.305h-.38v-.305zm.57 0h.38v.305h-.38v-.305zm-.76.305h.382v.305h-.381v-.305zm.951 0h.378v.305h-.378v-.305zm-1.139.305h.381v.305h-.38V7.93zm1.328 0h.381v.305h-.38V7.93zm-1.52.305h.38v.305h-.38v-.305zm1.709 0h.38v.305h-.38v-.305zM.57 8.54h.57v.304H.57V8.54zm2.278 0h.57v.304h-.57V8.54zm.377-.305h.381v.305h-.38v-.305zm.193-.305h.377v.305h-.377V7.93zm.188-.305h.378v.305h-.378v-.305zm-3.229.61h.385v.305H.38l-.004-.305zM.19 7.93h.38v.305H.19V7.93z" fill="#B20000"/><path d="M0 7.626h.381v.305H0v-.305zm.762 1.22H.95v.304H.758l.004-.305zm2.275 0h.188v.304h-.188v-.305zm-1.14-.915h.19v.305h-.19V7.93zm-.57.914h.19v.305h-.19v-.305zm1.14 0h.189v.305h-.189v-.305zm-.57 0h.19v.305h-.19v-.305zM0 8.845h.189v.305H0v-.305zm3.795 0h.189v.305h-.189v-.305zm-1.897-4.27h.188v.305h-.188v-.305zM.95 1.527h.188v.302H.951v-.302zm1.897 0h.189v.302h-.189v-.302zm-1.143 2.13h.57v.305h-.57v-.305zm-.377.309h.57v.304h-.57v-.304z" fill="#B20000"/><path d="M1.517 4.27h.192v.305h-.192V4.27zm-.378-.61h.381v.306h-.38V3.66zm.189-.304h.57v.305h-.57v-.305zm.189-.305h.192v.305h-.192v-.305zm.57.305h.569v.305h-.57v-.305zm.191-.305h.19v.305h-.19v-.305zm.19.61h.38v.305h-.38V3.66zm-.382.305h.57v.304h-.57v-.304zm.192.304h.19v.305h-.19V4.27zm.759-.61h.38v.306h-.38V3.66zm.188-.304h.57v.305h-.566l-.004-.305zm.381.305h.378v.305h-.378V3.66z" fill="#B20000"/><path d="M3.229 3.966h.566v.304h-.566v-.304zm.189.304h.188v.305h-.188V4.27zm0-1.219h.188v.305h-.188v-.305zM0 3.661h.381v.305H0V3.66zm.189-.305h.573v.305H.189v-.305zm.38.305h.382v.305H.57V3.66z" fill="#B20000"/><path d="M.189 3.966h.573v.304H.189v-.304zm.192.304H.57v.305H.38V4.27zm0-1.219H.57v.305H.38v-.305zM.189 5.49H.95v.305H.189V5.49zm.95 0h.762v.305H1.14V5.49zm.947 0h.762v.305h-.762V5.49zm.95 0H3.8v.305h-.762V5.49zm-1.52.61h.951v.308h-.95V6.1zm-1.327 0h.95v.308H.19V6.1zm2.66 0h.946v.308h-.947V6.1zm.946 1.223h.189v.304h-.189v-.304zM0 7.322h.189v.304H0v-.304zm.189 10.372H.38v-.308H.189v.308zm.57 0h.569v-.308H.762l-.004.308zm.188.302h.192v-.302H.943l.004.302zm.95 0h.19v-.302h-.19v.302zm.762-.302h.566v-.304h-.57l.004.304zm.19.302h.188v-.302h-.189v.302zm-2.28-.61h.382v-.305H.57v.305zm.57 0h.381v-.305h-.38v.305zm1.328 0h.381v-.305h-.38v.305zm.57 0h.373v-.305h-.37l-.003.305zm-1.705-.305h.373v-.305h-.377l.004.305zm.943 0h.38v-.305h-.377l-.003.305zm.95 0h.381v-.305h-.38v.305zm.381.613h.189v-.308h-.189v.308zM.19 16.776h.38v-.304H.19v.304zm1.328 0h.38v-.304h-.38v.304zm1.9 0h.378v-.304h-.377v.304zm-3.036-.914h.377v-.305H.381v.305zm.189-.305h.38v-.304H.57v.304zm.762.305h.373v-.305h-.377l.004.305zm-.193-.305h.378v-.304H1.14v.304zm-.38-.304h.569v-.305H.762l-.004.305zm.188-.305h.192v-.305H.943l.004.305zm1.331.914h.378v-.305h-.378v.305zm.19-.305h.38v-.304h-.38v.304zm.761.305h.377v-.305h-.38l.003.305zm-.192-.305h.373v-.304h-.37l-.003.304zm-.381-.304h.573v-.305h-.573v.305zm.192-.305h.189v-.305h-.189v.305zm-.95.305h.188v-.305h-.188v.305zm-1.898 0H.19v-.305H0v.305zm3.795 0h.189v-.305h-.189v.305zM.951 13.729h.188v-.308H.951v.308z" fill="#B20000"/><path d="M.762 13.424h.566v-.308H.762v.308zm-.192-.308h.95v-.305H.57v.305zm2.278.61h.189v-.302h-.189v.301zm-.192-.302h.573v-.308h-.573v.308zm-.189-.308h.947v-.305h-.947v.305zm.189-1.524h.95v-.305h-.95v.305zm-.378 1.219h1.328v-.305H2.278v.305zm-1.897 0h1.324v-.305H.381v.305zm.189-1.524h.57v-.305H.57v.305zm-.189.305h.947v-.305H.38v.305zm2.656.61h.947V11.9H3.04l-.003.301zm-.189-.915h.57v-.305h-.57v.305zM0 12.201h.95v-.3H0v.3zm1.705-.61h.573v-.304h-.573v.305zm.193-.304h.188v-.305h-.188v.305zm-.57.914h1.328v-.3H1.328v.3zm.762 4.575h.377v-.304h-.38l.003.304zm-.385-.304h.57v-.305h-.57v.305zm-.192-.305h.38v-.305h-.376l-.004.305zm.57 0h.384v-.305h-.38l-.004.305zM0 16.472h.381v-.305H0v.305zm.189-.305h.38v-.305H.19v.305zm3.417.305h.378v-.305h-.378v.305zm-.192-.305h.381v-.305h-.377l-.004.305zM0 13.424h.189v-.305H0v.305zm3.795 0h.189v-.305h-.189v.305zm-2.278-2.743h.38v-.304h-.38v.304zm.57 0h.38v-.304h-.38v.304zm-.76-.304h.382v-.305h-.381v.305zm.951 0h.378v-.305h-.378v.305zm-1.139-.309h.378V9.76h-.378v.308zm1.328 0h.381V9.76h-.38v.308zM.947 9.76h.38v-.301h-.38v.3zm1.709 0h.38v-.301h-.38v.3zM.57 9.459h.57V9.15H.57v.309zm2.278 0h.57V9.15h-.57v.309zm.377.304h.381v-.308h-.38v.308zm.193.301h.377v-.3h-.377v.3zm.188.309h.378v-.305h-.378v.305zm-3.229-.61h.385v-.308H.38l-.004.308zm-.188.301h.38v-.3H.19v.3zM0 10.377h.381v-.305H0v.305zm.762-1.223H.95v-.305H.758l.004.305zm1.136.918h.188V9.76h-.188v.312zm0 3.356h.188v-.309h-.188v.309zM.95 16.475h.188v-.304H.951v.304zm1.897 0h.189v-.304h-.189v.304zm-1.143-2.137h.57v-.304h-.57v.304zm-.38-.304h.569v-.305h-.566l-.004.305zm.188-.309h.192v-.3h-.192v.3zm-.377.613h.377v-.304h-.374l-.003.304zm.192.305h.57v-.305h-.57v.305zm.189.305h.192v-.305h-.192v.305zm.57-.305h.569v-.305h-.57v.305zm.191.305h.19v-.305h-.19v.305zm.19-.61h.38v-.304h-.38v.304zm-.382-.304h.57v-.305h-.57v.305zm.192-.309h.19v-.3h-.19v.3zm.759.613h.373v-.304h-.37l-.003.304zm.188.305h.57v-.305h-.566l-.004.305zm.381-.305h.378v-.304h-.378v.304zm-.38-.304h.569v-.305h-.566l-.004.305zm.192-.309h.188v-.3h-.188v.3zm0 1.223h.188v-.305h-.188v.305zM0 14.338h.381v-.304H0v.304z" fill="#B20000"/><path d="M.189 14.643h.573v-.305H.189v.305zm.38-.305h.382v-.304H.57v.304zm-.38-.304h.573v-.305H.189v.305zm.192-.309H.57v-.3H.38v.3zm0 1.223H.57v-.305H.38v.305zm-.192-2.442H.95v-.305H.189v.305zm.95 0h.762v-.305H1.14v.305zm.947 0h.762v-.305h-.762v.305zm.95 0H3.8v-.305h-.762v.305zm-1.52-.606h.951v-.304h-.95v.304zm-1.327 0h.95v-.304H.19v.304zm2.66 0h.946v-.304h-.947v.304zm.946-1.219h.189v-.304h-.189v.304zM0 10.678h.189v-.305H0v.305zm1.705-1.524h.193v.301h-.19l-.003-.301zm.381 0h.192v.301h-.192v-.301zm0-.613h.192v.304h-.192v-.304zm-.377 0h.189v.304h-.19v-.304zM.38 16.776h.377v.305H.381v-.305zm2.656-5.794h.188v-.304h-.188v.304zm-2.279 0h.189v-.304H.762l-.004.304zm.95-.304h.57v.304h-.573l.004-.304z" fill="#B20000"/></g><defs><clipPath id="clip0"><rect width="18" height="18" rx="2" fill="#fff"/></clipPath></defs></svg>