<svg width="20" height="20" fill="none" xmlns="http://www.w3.org/2000/svg"><path d="M16.938 19H3.063A2.064 2.064 0 0 1 1 16.937V4.563C1 3.425 1.925 2.5 3.063 2.5h13.874C18.075 2.5 19 3.425 19 4.562v12.375A2.064 2.064 0 0 1 16.937 19zM3.063 3.625a.939.939 0 0 0-.938.937v12.375c0 .517.42.938.938.938h13.874c.517 0 .938-.42.938-.938V4.563a.939.939 0 0 0-.938-.937H3.063z" fill="#0E3770"/><path d="M18.438 8.125H1.563a.563.563 0 0 1 0-1.125h16.875a.563.563 0 0 1 0 1.125zM5.313 5.5a.563.563 0 0 1-.563-.563V1.563a.563.563 0 0 1 1.125 0v3.375a.563.563 0 0 1-.562.563zm9.375 0a.563.563 0 0 1-.563-.563V1.563a.563.563 0 0 1 1.125 0v3.375a.563.563 0 0 1-.563.563z" fill="#0E3770"/><path d="M16.938 19H3.063A2.064 2.064 0 0 1 1 16.937V4.563C1 3.425 1.925 2.5 3.063 2.5h13.874C18.075 2.5 19 3.425 19 4.562v12.375A2.064 2.064 0 0 1 16.937 19zM3.063 3.625a.939.939 0 0 0-.938.937v12.375c0 .517.42.938.938.938h13.874c.517 0 .938-.42.938-.938V4.563a.939.939 0 0 0-.938-.937H3.063z" stroke="#0E3770" stroke-width=".5"/><path d="M18.438 8.125H1.563a.563.563 0 0 1 0-1.125h16.875a.563.563 0 0 1 0 1.125zM5.313 5.5a.563.563 0 0 1-.563-.563V1.563a.563.563 0 0 1 1.125 0v3.375a.563.563 0 0 1-.562.563zm9.375 0a.563.563 0 0 1-.563-.563V1.563a.563.563 0 0 1 1.125 0v3.375a.563.563 0 0 1-.563.563z" stroke="#0E3770" stroke-width=".5"/></svg>