<svg width="20" height="20" fill="none" xmlns="http://www.w3.org/2000/svg"><path d="M8.937 1C4.561 1 1 4.56 1 8.935s3.56 7.935 7.937 7.935c4.377 0 7.938-3.56 7.938-7.935S13.314 1 8.937 1zm0 14.565c-3.659 0-6.636-2.974-6.636-6.63 0-3.656 2.977-6.63 6.636-6.63 3.66 0 6.636 2.974 6.636 6.63 0 3.656-2.976 6.63-6.636 6.63z" fill="#0E3770"/><path d="M18.808 17.885l-4.272-4.26a.65.65 0 0 0-.92.002.654.654 0 0 0 .002.922l4.272 4.261a.648.648 0 0 0 .92-.002.654.654 0 0 0-.002-.923z" fill="#0E3770"/><path d="M8.937 1C4.561 1 1 4.56 1 8.935s3.56 7.935 7.937 7.935c4.377 0 7.938-3.56 7.938-7.935S13.314 1 8.937 1zm0 14.565c-3.659 0-6.636-2.974-6.636-6.63 0-3.656 2.977-6.63 6.636-6.63 3.66 0 6.636 2.974 6.636 6.63 0 3.656-2.976 6.63-6.636 6.63z" stroke="#0E3770" stroke-width=".4"/><path d="M18.808 17.885l-4.272-4.26a.65.65 0 0 0-.92.002.654.654 0 0 0 .002.922l4.272 4.261a.648.648 0 0 0 .92-.002.654.654 0 0 0-.002-.923z" stroke="#0E3770" stroke-width=".4"/></svg>