<svg width="20" height="20" fill="none" xmlns="http://www.w3.org/2000/svg"><path d="M9.965 8.102a.703.703 0 1 1 0 1.406.703.703 0 0 1 0-1.406zm2.46.703a.703.703 0 1 0 1.407 0 .703.703 0 0 0-1.406 0zm-6.327 0a.703.703 0 1 0 1.406 0 .703.703 0 0 0-1.406 0zM18.382 15.4a2.112 2.112 0 0 1 0 2.983 2.103 2.103 0 0 1-1.491.617c-.54 0-1.08-.206-1.492-.617l-3.86-3.851a.702.702 0 0 1-.176-.294l-.84-2.768a.703.703 0 0 1 .86-.881l2.838.786a.704.704 0 0 1 .31.18l3.85 3.845zm-5.725-1.74l2.605 2.6.995-.995-2.59-2.584-1.427-.396.418 1.376zm4.73 2.734l-.135-.135-.994.994.135.135a.704.704 0 0 0 .995-.994zm-6.996-.823a8.508 8.508 0 0 1-3.626-.617.704.704 0 0 0-.54.003l-3.2 1.353 1.079-2.556a.703.703 0 0 0-.123-.74c-1.03-1.157-1.574-2.541-1.574-4.002 0-3.642 3.407-6.605 7.594-6.605s7.594 2.963 7.594 6.605c0 .863-.212 1.73-.63 2.576a.703.703 0 1 0 1.26.624c.515-1.042.776-2.119.776-3.2C19 4.594 14.963 1 10 1S1 4.594 1 9.01c0 1.668.565 3.247 1.64 4.594l-1.585 3.752a.703.703 0 0 0 .922.922l4.532-1.914a9.932 9.932 0 0 0 3.944.612.703.703 0 1 0-.062-1.405z" fill="#fff" stroke="#fff" stroke-width=".1"/></svg>