<svg width="175" height="50" fill="none" xmlns="http://www.w3.org/2000/svg"><path fill-rule="evenodd" clip-rule="evenodd" d="M25.088 0a25.69 25.69 0 0 1 12.606 3.317l5.562-1.72-2.225 3.931-9.887 17.076H22l3.83-6.51h-8.527l1.607 2.825L6.056 41.032C2.225 36.732 0 31.082 0 24.939 0 11.179 11.246 0 25.088 0zM11.741 27.273l2.595-4.546h-6.92l3.707-1.965 4.325-7.371h13.1l1.607 2.825 4.202-7.37H12.853L4.82 22.726l2.595 4.546h4.326z" fill="#DE2A2D"/><path fill-rule="evenodd" clip-rule="evenodd" d="M25.088 50a25.7 25.7 0 0 1-12.606-3.317l-5.561 1.72 2.224-3.931 9.887-17.076h9.146l-3.831 6.51h8.527l-1.606-2.825L44.12 8.968c3.707 4.3 5.932 9.95 5.932 16.093C50.3 38.821 39.053 50 25.088 50zM38.56 22.727l-2.719 4.546h6.921l-3.707 1.965-4.326 7.371h-13.1l-1.607-2.825-4.202 7.37h21.628l8.033-13.881-2.595-4.546H38.56zm34.975 4.054v5.897H63.03v-5.897h-5.438v14.25h5.438v-5.159h10.505v5.16h5.437v-14.25h-5.437zm32.132 14.25h17.673c.989 0 1.854-.368 2.596-1.105.741-.737 1.112-1.597 1.112-2.702v-1.597c0-.86-.247-1.475-.865-2.089a2.956 2.956 0 0 0 .865-2.088v-.983c0-.983-.371-1.966-1.112-2.703-.742-.737-1.607-1.105-2.596-1.105h-17.673v14.373zm15.943-3.439h-10.505v-2.334h10.505v2.334zm-10.505-5.282v-2.09h10.505v2.089h-10.505zm-13.594-5.53h5.437v10.565c0 .983-.37 1.966-1.112 2.703-.741.737-1.607 1.106-2.719 1.106H85.522c-2.224 0-3.83-1.72-3.83-3.809V26.904h5.437v10.688h10.505v-10.81h-.123z" fill="#0E3770"/><path fill-rule="evenodd" clip-rule="evenodd" d="M175 8.722c0 2.089-2.348 3.563-4.202 3.563h-4.202v10.688h-5.932V12.285h-4.202c-2.101 0-4.202-1.597-4.202-3.563H175zM73.535 17.445H61.794c-2.101 0-4.079-1.72-4.079-3.809v-1.105c0-2.212 1.854-3.686 4.079-3.686h17.302c0 1.966-2.348 3.44-4.202 3.44H63.277v2.088h11.617c1.977 0 4.202 1.229 4.202 3.44v1.475c0 2.21-1.977 3.808-4.078 3.808H57.715c0-1.843 2.101-3.194 3.955-3.44h11.865v-2.211zm13.594-5.283v10.811h-5.438V8.723h17.303c2.101 0 4.202 1.474 4.202 3.685v1.72c0 2.211-2.101 3.685-4.202 3.685H88.612c.124-1.842 2.225-3.194 4.079-3.317h5.067v-2.334H87.129zm35.964-3.44h-13.594c-2.101 0-3.832 1.597-3.832 3.809v6.757c0 2.088 1.731 3.808 3.832 3.808h13.594c2.101 0 3.831-1.597 3.831-3.808V12.53c0-2.212-1.73-3.809-3.831-3.809zM121.61 19.41h-10.505v-7.125h10.505v7.125zm13.471-7.248h10.505v2.334h-8.157l6.427 8.477h5.932l-4.449-5.283h1.73c1.978 0 3.955-1.72 3.955-3.562v-1.72c0-2.089-1.73-3.808-3.831-3.808h-17.426v14.25h5.438V12.162h-.124z" fill="#DE2A2D"/></svg>