<svg width="18" height="18" fill="none" xmlns="http://www.w3.org/2000/svg"><g clip-path="url(#clip0)" fill-rule="evenodd" clip-rule="evenodd"><path d="M0 0h34.2v1.385H0V0zm0 2.77h34.2v1.384H0V2.769zm0 2.769h34.2v1.384H0V5.54zm0 2.769h34.2v1.384H0V8.308zm0 2.769h34.2v1.385H0v-1.385zm0 2.77h34.2v1.384H0v-1.385zm0 2.769h34.2V18H0v-1.384z" fill="#BD3D44"/><path d="M0 1.385h34.2v1.384H0V1.385zm0 2.769h34.2v1.385H0V4.154zm0 2.77h34.2v1.384H0V6.923zm0 2.768h34.2v1.385H0V9.692zm0 2.77h34.2v1.384H0v-1.384zm0 2.769h34.2v1.385H0V15.23z" fill="#fff"/><path d="M0 0h13.68v9.692H0V0z" fill="#192F5D"/><path d="M1.135.415l.139.388h.388l-.319.235.125.374-.333-.235-.304.235.124-.373L.623.802h.416l.096-.388zm2.285 0l.125.388h.401l-.332.235.138.374-.332-.235-.332.235.138-.373-.332-.236h.401L3.42.415zm2.285 0l.124.388h.402l-.332.235.138.374-.332-.235-.333.235.139-.373-.332-.236h.401l.125-.388zm2.27 0l.139.388h.388l-.319.235.125.374-.332-.235-.319.235.125-.373-.333-.236h.416l.11-.388zm2.285 0l.125.388h.401l-.332.235.138.374-.346-.235-.318.235.124-.373L9.72.802h.402l.138-.388zm2.285 0l.124.388h.402l-.332.235.138.374-.332-.235-.332.235.138-.373-.332-.236h.401l.125-.388zm-10.26.97l.124.387h.402l-.332.236.138.374-.332-.236-.333.236.139-.374-.332-.236h.401l.125-.387zm2.27 0l.139.387h.388l-.319.236.125.374-.332-.236-.319.236.125-.374-.333-.236h.416l.11-.387zm2.285 0l.125.387h.401l-.332.236.138.374-.332-.236-.332.236.138-.374-.332-.236h.402l.124-.387zm2.285 0l.124.387h.402l-.332.236.138.374-.332-.236-.333.236.139-.374-.332-.236H9l.125-.387zm2.27 0l.14.387h.373l-.319.236.125.374-.332-.236-.319.236.125-.374-.332-.236h.415l.125-.387zM1.15 2.354l.111.388h.415l-.332.235.125.374-.333-.236-.304.236.124-.374-.332-.235h.416l.11-.388zm2.271 0l.125.388h.401l-.318.235.124.374-.332-.236-.318.236.124-.374-.332-.235h.401l.125-.388zm2.285 0l.124.388h.402l-.332.235.138.374-.332-.236-.333.236.139-.374-.332-.235h.401l.125-.388zm2.27 0l.139.388h.388l-.319.235.125.374-.332-.236-.319.236.125-.374-.333-.235h.416l.11-.388zm2.285 0l.125.388h.401l-.318.235.124.374-.332-.236-.318.236.124-.374-.332-.235h.402l.124-.388zm2.285 0l.124.388h.402l-.332.235.138.374-.332-.236-.332.236.138-.374-.332-.235h.401l.125-.388zm-10.26.97l.124.387h.402l-.332.235.138.374-.332-.235-.333.235.139-.374-.332-.235h.401l.125-.388zm2.27 0l.139.387h.388l-.319.235.125.374-.332-.235-.319.235.125-.374-.333-.235h.416l.11-.388zm2.285 0l.125.387h.401l-.318.235.124.374-.332-.235-.318.235.124-.374-.332-.235h.402l.124-.388zm2.285 0l.124.387h.402l-.332.235.138.374-.332-.235-.333.235.139-.374-.332-.235H9l.125-.388zm2.27 0l.14.387h.373l-.319.235.125.374-.332-.235-.319.235.125-.374-.332-.235h.415l.125-.388zM1.15 4.291l.111.388h.415l-.332.235.125.374-.333-.235-.304.235.124-.374-.332-.235h.416l.11-.388zm2.271 0l.125.388h.401l-.318.235.124.374-.332-.235-.318.235.124-.374-.332-.235h.401l.125-.388zm2.285 0l.124.388h.402l-.332.235.138.374-.332-.235-.333.235.139-.374-.332-.235h.401l.125-.388zm2.27 0l.139.388h.388l-.319.235.125.374-.332-.235-.319.235.125-.374-.333-.235h.416l.11-.388zm2.285 0l.125.388h.401l-.318.235.124.374-.332-.235-.318.235.124-.374-.332-.235h.402l.124-.388zm2.285 0l.124.388h.402l-.332.235.138.374-.332-.235-.332.235.138-.374-.332-.235h.401l.125-.388zm-10.26.97l.124.387h.402l-.332.236.138.374-.332-.236-.333.236.139-.374-.332-.236h.401l.125-.387zm2.27 0l.139.387h.388l-.319.236.125.374-.332-.236-.319.236.125-.374-.333-.236h.416l.11-.387zm2.285 0l.125.387h.401l-.318.236.124.374-.332-.236-.318.236.124-.374-.332-.236h.402l.124-.387zm2.285 0l.124.387h.402l-.332.236.138.374-.332-.236-.333.236.139-.374-.332-.236H9l.125-.387zm2.27 0l.14.387h.373l-.319.236.125.374-.332-.236-.319.236.125-.374-.332-.236h.415l.125-.387zM1.15 6.23l.111.388h.415l-.332.235.125.374-.333-.236-.304.236.124-.374-.332-.235h.416l.11-.388zm2.271 0l.125.388h.401l-.318.235.124.374-.332-.236-.318.236.124-.374-.332-.235h.401l.125-.388zm2.285 0l.124.388h.402l-.332.235.138.374-.332-.236-.333.236.139-.374-.332-.235h.401l.125-.388zm2.27 0l.139.388h.388l-.319.235.125.374-.332-.236-.319.236.125-.374-.333-.235h.416l.11-.388zm2.285 0l.125.388h.401l-.318.235.124.374-.332-.236-.318.236.124-.374-.332-.235h.402l.124-.388zm2.285 0l.124.388h.402l-.332.235.138.374-.332-.236-.332.236.138-.374-.332-.235h.401l.125-.388zm-10.26.97l.124.387h.402l-.332.235.138.374-.332-.235-.333.235.139-.374-.332-.235h.401l.125-.388zm2.27 0l.139.387h.388l-.319.235.125.374-.332-.235-.319.235.125-.374-.333-.235h.416l.11-.388zm2.285 0l.125.387h.401l-.318.235.124.374-.332-.235-.318.235.124-.374-.332-.235h.402L6.84 7.2zm2.285 0l.124.387h.402l-.332.235.138.374-.332-.235-.333.235.139-.374-.332-.235H9l.125-.388zm2.27 0l.14.387h.373l-.319.235.125.374-.332-.235-.319.235.125-.374-.332-.235h.415l.125-.388zM1.15 8.168l.111.388h.415l-.332.235.125.374-.333-.235-.304.235.124-.374-.332-.235h.416l.11-.388zm2.271 0l.125.388h.401l-.318.235.124.374-.332-.235-.318.235.124-.374-.332-.235h.401l.125-.388zm2.285 0l.124.388h.402l-.332.235.138.374-.332-.235-.333.235.139-.374-.332-.235h.401l.125-.388zm2.27 0l.139.388h.388l-.319.235.125.374-.332-.235-.319.235.125-.374-.333-.235h.416l.11-.388zm2.285 0l.125.388h.401l-.318.235.124.374-.332-.235-.318.235.124-.374-.332-.235h.402l.124-.388zm2.285 0l.124.388h.402l-.332.235.138.374-.332-.235-.332.235.138-.374-.332-.235h.401l.125-.388z" fill="#fff"/></g><defs><clipPath id="clip0"><rect width="18" height="18" rx="2" fill="#fff"/></clipPath></defs></svg>