<svg width="14" height="11" fill="none" xmlns="http://www.w3.org/2000/svg"><path d="M14 1.34c-.5.211-1.071.352-1.643.423.572-.353 1.072-.917 1.286-1.551-.572.352-1.143.564-1.857.705A2.827 2.827 0 0 0 9.714 0C8.143 0 6.857 1.27 6.857 2.82c0 .212 0 .424.072.635A8.457 8.457 0 0 1 1 .494a3.177 3.177 0 0 0-.357 1.41c0 .987.5 1.833 1.286 2.327-.5 0-.929-.141-1.286-.353 0 1.34 1 2.539 2.286 2.75-.215.07-.5.07-.786.07-.214 0-.357 0-.572-.07a2.847 2.847 0 0 0 2.715 1.975C3.286 9.378 2.07 9.8.714 9.8.5 9.8.286 9.8 0 9.73 1.286 10.506 2.786 11 4.429 11c5.285 0 8.142-4.301 8.142-8.038v-.353c.572-.212 1.072-.705 1.429-1.27z" fill="#55ACE3"/></svg>