<svg width="20" height="20" fill="none" xmlns="http://www.w3.org/2000/svg"><path d="M10 1a9 9 0 1 0 9 9 9.01 9.01 0 0 0-9-9zm8.468 9c0 .325-.02.65-.057.973-2.009-1.987-4.097-3.426-6.246-4.3.04-.202.098-.4.174-.592.448-1.156 1.466-2.17 2.804-2.802A8.457 8.457 0 0 1 18.468 10zm-3.816-7.07c-1.33.695-2.342 1.754-2.805 2.95a3.54 3.54 0 0 0-.183.602 13.482 13.482 0 0 0-3.043-.73 17.127 17.127 0 0 1 2.13-4.185 8.412 8.412 0 0 1 3.901 1.362zm-4.52-1.395a17.768 17.768 0 0 0-2.055 4.164l-.115-.01a12.34 12.34 0 0 0-2.43.077 5.262 5.262 0 0 0-.214-2.818A8.419 8.419 0 0 1 10 1.532l.133.003zM4.874 3.267a4.8 4.8 0 0 1 .103 2.586 11.55 11.55 0 0 0-2.78.86 8.513 8.513 0 0 1 2.677-3.446zM1.928 7.439a10.4 10.4 0 0 1 2.89-1.017l-.013.04c-.17.448-.37.884-.599 1.305-.73 1.436-1.701 3.35-1.597 6.36a8.45 8.45 0 0 1-.68-6.688zm1.278 7.61c-.363-3.428.697-5.515 1.473-7.04.24-.444.45-.903.628-1.374a6.21 6.21 0 0 0 .098-.315 11.826 11.826 0 0 1 2.501-.101c-1.025 3.28-1.318 7.156-.897 11.702a8.511 8.511 0 0 1-3.803-2.872zm4.354 3.06c-.452-4.63-.162-8.55.89-11.842 1.068.119 2.118.37 3.124.748a7.326 7.326 0 0 0 .193 2.76c.142.482.32.954.53 1.41.62 1.448 1.387 3.245 1.131 6.556a8.444 8.444 0 0 1-5.868.367zm6.42-.637c.193-3.25-.604-5.117-1.194-6.496-.2-.433-.368-.88-.504-1.336a6.823 6.823 0 0 1-.2-2.424c2.14.892 4.223 2.365 6.229 4.408a8.494 8.494 0 0 1-4.331 5.848z" fill="#E57E25" stroke="#E57E25"/></svg>