<svg width="14" height="14" fill="none" xmlns="http://www.w3.org/2000/svg"><path d="M7 3.308a3.68 3.68 0 0 0-3.44 2.308 1.505 1.505 0 0 0-1.25-.64c-.555 0-1.041.296-1.31.737v-3.72c0-.58.414-.993.992-.993H9.26a1.596 1.596 0 0 0-.782 1.37v1.238A3.75 3.75 0 0 0 7 3.308zm5.395 1.88c.258-.156.469-.383.605-.653v1.206a1.503 1.503 0 0 0-.605-.553zm-2.041.227h.361a1.63 1.63 0 0 0-.244.282 3.584 3.584 0 0 0-.117-.282z" stroke="url(#paint0_linear)" stroke-width="2"/><defs><linearGradient id="paint0_linear" x1="12.6" y1="2.1" x2="2.8" y2="12.367" gradientUnits="userSpaceOnUse"><stop stop-color="#EEA054"/><stop offset=".505" stop-color="#D64763"/><stop offset="1" stop-color="#B62A99"/></linearGradient></defs></svg>